<svg xmlns="http://www.w3.org/2000/svg">

  <symbol id="icon-menu" viewBox="0 0 23 22">
    <path d="M22.9 0H0V4H22.9V0Z"/>
    <path d="M22.9 9H0V13H22.9V9Z" />
    <path d="M22.9 18H0V22H22.9V18Z" />
  </symbol>

  <symbol id="slider-arrow-left" viewBox="0 0 11 20">
  <path d="M9.71661 0L11 1.32082L2.56677 10L11 18.6792L9.71661 20L0 10L9.71661 0Z"/>
  </symbol>

  <symbol id="icon-cross" viewBox="0 0 23 23">
    <path d="M22.2 2.8L19.4 0L11.1 8.3L2.8 0L0 2.8L8.3 11.1L0 19.4L2.8 22.2L11.1 13.9L19.4 22.2L22.2 19.4L13.9 11.1L22.2 2.8Z" />
  </symbol>

  <symbol id="icon-facebook" viewBox="0 0 9 19">
    <path d="M6.3 3.4C7.1 3.4 7.9 3.4 8.7 3.4C8.7 2.3 8.7 1.2 8.7 0C7.7 0 6.8 0 5.8 0C2.7 0.2 1.5 2.4 1.9 6.1H0V9.6H2C2 12.7 2 15.8 2 18.9C3.3 18.9 4.6 18.9 5.8 18.9C5.8 15.8 5.8 12.7 5.8 9.6H8.7V6.1H5.8C5.8 5.1 5.8 3.7 6.3 3.4Z" />
  </symbol>

  <symbol id="icon-youtube" viewBox="0 0 20 14">
    <path d="M17.1 0H2.8C1.3 0 0 1.3 0 2.8V11.1C0 12.7 1.3 14 2.8 14H17.1C18.7 14 19.9 12.7 19.9 11.2V2.8C20 1.3 18.7 0 17.1 0ZM7 10.4V3.6L13.8 7L7 10.4Z" />
  </symbol>

  <symbol id="icon-twitter" viewBox="0 0 18 15">
    <path d="M11.3 0.166728C13 -0.333272 14.4 0.366728 15 1.26673C15.7 1.06673 16.4 0.766728 17.1 0.566728C17.1 1.36673 16.6 2.06673 16.2 2.26673C16.9 2.46673 17.5 1.76673 17.5 1.76673C17.3 2.76673 16.5 3.46673 15.9 3.76673C15.7 10.3667 12.6 14.7667 5.5 14.5667C5 14.5667 5.6 14.5667 5 14.5667C4.6 14.5667 0.7 14.1667 0 12.7667C2.3 12.9667 4 12.3667 4.8 11.6667C3.8 11.3667 2 11.1667 1.7 8.76673C2.1 8.86673 2.3 8.96673 3 8.86673C1.8 8.06673 0.4 7.36673 0.5 5.16673C0.8 5.46673 1.6 5.66673 1.9 5.66673C1.2 5.46673 -0.1 2.36673 1 0.866728C2.9 2.66673 4.8 4.36673 8.4 4.56673C8.5 2.26673 9.5 0.766728 11.3 0.166728Z" />
  </symbol>

  <symbol id="htmlacademy" width="27" height="35" viewBox="0 0 27 35">
    <path d="M30.2 5h-.2l-19.7 2.1v36.2l19.7 11.7 19.7-11.7v-36.2l-19.5-2.1zm17 36.8l-17.2 10.2-17.2-10.2v-14.8l17.1 10.2v1.8l-11.7-7v1.8l11.8 7.1v1.9l-11.8-7v1.8l11.8 7 11.9-7.1v-7.6l5.3-3.2v15.1zm-.1-17l-4.7 2.8-2.2 1.3-10.3-6.1v1.8l8.8 5.3h-.1l-.2.1-1.3.7-7.3-4.3v1.8l5.8 3.4-1.4.9-4.3-2.6v1.8l2.9 1.7-2.9 1.7-17-10.1 17-10.2 17.2 10zm.1-1.8l-17.3-10.2-17.1 10.2v-13.6l17.2-1.8 17.2 1.8v13.6z"/>
  </symbol>

  <symbol id="fullscreen"  viewBox="0 0 20 20">
    <path d="M0 0V3V6H3V3H6V0H3H0Z" />
    <path d="M3 14H0V17V20H3H6V17H3V14Z" />
    <path d="M17 0H14V3H17V6H20V3V0H17Z" />
    <path d="M17 17H14V20H17H20V17V14H17V17Z" />
  </symbol>

  <symbol id="replay" width="16" height="20" viewBox="0 0 16 20">
    <path d="M8 4V0L3 5L8 10V6C11.3 6 14 8.7 14 12C14 15.3 11.3 18 8 18C4.7 18 2 15.3 2 12H0C0 16.4 3.6 20 8 20C12.4 20 16 16.4 16 12C16 7.6 12.4 4 8 4Z" />
  </symbol>

  <symbol id="subtitles" width="32" height="20" viewBox="0 0 32 20">
    <path d="M29 0H3C1.3 0 0 1.3 0 3V17C0 18.7 1.3 20 3 20H29C30.7 20 32 18.7 32 17V3C32 1.3 30.7 0 29 0ZM14.4 15.9C13.9 16 13.3 16 12.7 16C12 16 11.3 15.9 10.7 15.7C10.1 15.5 9.5 15.1 9.1 14.7C8.7 14.3 8.3 13.6 8 12.8C7.7 12 7.6 11.1 7.6 10C7.6 8.9 7.8 7.9 8.1 7.1C8.4 6.3 8.8 5.7 9.3 5.2C9.8 4.7 10.4 4.4 11 4.2C11.5 4.1 12.2 4 12.8 4C13.5 4 14 4 14.5 4.1C15 4.2 15.3 4.3 15.6 4.4L15.2 6.3C14.9 6.2 14.6 6.1 14.3 6C13.9 6 13.5 6 13 6C12.1 6 11.4 6.3 10.8 7C10.2 7.7 10 8.7 10 10C10 10.6 10.1 11.1 10.2 11.6C10.3 12.1 10.5 12.5 10.8 12.9C11.1 13.2 11.4 13.5 11.8 13.7C12.2 13.9 12.7 14 13.2 14C13.7 14 14.1 14 14.5 13.9C14.8 13.8 15.1 13.7 15.4 13.5L15.9 15.3C15.4 15.6 14.9 15.7 14.4 15.9ZM23.1 15.9C22.6 16 22 16 21.4 16C20.7 16 20 15.9 19.4 15.7C18.8 15.5 18.2 15.1 17.8 14.7C17.3 14.2 16.9 13.6 16.7 12.8C16.4 12 16.3 11.1 16.3 10C16.3 8.9 16.5 7.9 16.8 7.1C17.1 6.3 17.5 5.7 18 5.2C18.5 4.7 19.1 4.4 19.7 4.2C20.2 4.1 20.9 4 21.5 4C22.2 4 22.7 4 23.2 4.1C23.7 4.2 24 4.3 24.3 4.4L23.9 6.3C23.6 6.2 23.3 6.1 23 6C22.6 6 22.2 6 21.7 6C20.8 6 20.1 6.3 19.5 7C18.9 7.7 18.7 8.7 18.7 10C18.7 10.6 18.8 11.1 18.9 11.6C19 12.1 19.2 12.5 19.5 12.9C19.8 13.2 20.1 13.5 20.5 13.7C20.9 13.9 21.4 14 21.9 14C22.4 14 22.8 14 23.2 13.9C23.5 13.8 23.8 13.7 24.1 13.5L24.6 15.3C24.1 15.6 23.6 15.7 23.1 15.9Z" />
  </symbol>

</svg>

