<svg width="112" height="16" viewBox="0 0 112 16" fill="none" xmlns="http://www.w3.org/2000/svg">
<path d="M8.32059 3.6H9.19659V12H8.32059V3.6ZM3.06459 12H2.17659V3.6H3.06459V12ZM8.40459 8.124H2.96859V7.344H8.40459V8.124ZM13.5703 12V4.368H10.6183V3.6H17.4103V4.368H14.4583V12H13.5703ZM18.8289 12V3.6H19.5609L23.4009 10.152H23.0169L26.8209 3.6H27.5529V12H26.7009V4.932H26.9049L23.4009 10.932H22.9809L19.4529 4.932H19.6809V12H18.8289ZM30.2899 12V3.6H31.1779V11.232H35.8819V12H30.2899ZM39.1529 12L42.9929 3.6H43.8689L47.7089 12H46.7729L43.2449 4.116H43.6049L40.0769 12H39.1529ZM40.6649 9.756L40.9289 9.036H45.8129L46.0769 9.756H40.6649ZM51.4759 12.06C50.8519 12.06 50.2919 11.924 49.7959 11.652C49.3079 11.372 48.9239 10.992 48.6439 10.512C48.3639 10.024 48.2239 9.468 48.2239 8.844C48.2239 8.212 48.3639 7.656 48.6439 7.176C48.9239 6.696 49.3079 6.32 49.7959 6.048C50.2919 5.776 50.8519 5.64 51.4759 5.64C52.0119 5.64 52.4959 5.744 52.9279 5.952C53.3599 6.16 53.6999 6.472 53.9479 6.888L53.3119 7.32C53.0959 7 52.8279 6.764 52.5079 6.612C52.1879 6.46 51.8399 6.384 51.4639 6.384C51.0159 6.384 50.6119 6.488 50.2519 6.696C49.8919 6.896 49.6079 7.18 49.3999 7.548C49.1919 7.916 49.0879 8.348 49.0879 8.844C49.0879 9.34 49.1919 9.772 49.3999 10.14C49.6079 10.508 49.8919 10.796 50.2519 11.004C50.6119 11.204 51.0159 11.304 51.4639 11.304C51.8399 11.304 52.1879 11.228 52.5079 11.076C52.8279 10.924 53.0959 10.692 53.3119 10.38L53.9479 10.812C53.6999 11.22 53.3599 11.532 52.9279 11.748C52.4959 11.956 52.0119 12.06 51.4759 12.06ZM59.5696 12V10.608L59.5336 10.38V8.052C59.5336 7.516 59.3816 7.104 59.0776 6.816C58.7816 6.528 58.3376 6.384 57.7456 6.384C57.3376 6.384 56.9496 6.452 56.5816 6.588C56.2136 6.724 55.9016 6.904 55.6456 7.128L55.2616 6.492C55.5816 6.22 55.9656 6.012 56.4136 5.868C56.8616 5.716 57.3336 5.64 57.8296 5.64C58.6456 5.64 59.2736 5.844 59.7136 6.252C60.1616 6.652 60.3856 7.264 60.3856 8.088V12H59.5696ZM57.3976 12.06C56.9256 12.06 56.5136 11.984 56.1616 11.832C55.8176 11.672 55.5536 11.456 55.3696 11.184C55.1856 10.904 55.0936 10.584 55.0936 10.224C55.0936 9.896 55.1696 9.6 55.3216 9.336C55.4816 9.064 55.7376 8.848 56.0896 8.688C56.4496 8.52 56.9296 8.436 57.5296 8.436H59.7016V9.072H57.5536C56.9456 9.072 56.5216 9.18 56.2816 9.396C56.0496 9.612 55.9336 9.88 55.9336 10.2C55.9336 10.56 56.0736 10.848 56.3536 11.064C56.6336 11.28 57.0256 11.388 57.5296 11.388C58.0096 11.388 58.4216 11.28 58.7656 11.064C59.1176 10.84 59.3736 10.52 59.5336 10.104L59.7256 10.692C59.5656 11.108 59.2856 11.44 58.8856 11.688C58.4936 11.936 57.9976 12.06 57.3976 12.06ZM65.2077 12.06C64.6077 12.06 64.0677 11.924 63.5877 11.652C63.1157 11.38 62.7437 11.004 62.4717 10.524C62.1997 10.036 62.0637 9.476 62.0637 8.844C62.0637 8.204 62.1997 7.644 62.4717 7.164C62.7437 6.684 63.1157 6.312 63.5877 6.048C64.0677 5.776 64.6077 5.64 65.2077 5.64C65.7597 5.64 66.2517 5.764 66.6837 6.012C67.1237 6.26 67.4717 6.624 67.7277 7.104C67.9917 7.576 68.1237 8.156 68.1237 8.844C68.1237 9.524 67.9957 10.104 67.7397 10.584C67.4837 11.064 67.1357 11.432 66.6957 11.688C66.2637 11.936 65.7677 12.06 65.2077 12.06ZM65.2677 11.304C65.7157 11.304 66.1157 11.204 66.4677 11.004C66.8277 10.796 67.1077 10.508 67.3077 10.14C67.5157 9.764 67.6197 9.332 67.6197 8.844C67.6197 8.348 67.5157 7.916 67.3077 7.548C67.1077 7.18 66.8277 6.896 66.4677 6.696C66.1157 6.488 65.7157 6.384 65.2677 6.384C64.8277 6.384 64.4317 6.488 64.0797 6.696C63.7277 6.896 63.4477 7.18 63.2397 7.548C63.0317 7.916 62.9277 8.348 62.9277 8.844C62.9277 9.332 63.0317 9.764 63.2397 10.14C63.4477 10.508 63.7277 10.796 64.0797 11.004C64.4317 11.204 64.8277 11.304 65.2677 11.304ZM67.6437 12V10.104L67.7277 8.832L67.6077 7.56V3.096H68.4597V12H67.6437ZM73.5085 12.06C72.8525 12.06 72.2765 11.924 71.7805 11.652C71.2845 11.372 70.8965 10.992 70.6165 10.512C70.3365 10.024 70.1965 9.468 70.1965 8.844C70.1965 8.22 70.3285 7.668 70.5925 7.188C70.8645 6.708 71.2325 6.332 71.6965 6.06C72.1685 5.78 72.6965 5.64 73.2805 5.64C73.8725 5.64 74.3965 5.776 74.8525 6.048C75.3165 6.312 75.6805 6.688 75.9445 7.176C76.2085 7.656 76.3405 8.212 76.3405 8.844C76.3405 8.884 76.3365 8.928 76.3285 8.976C76.3285 9.016 76.3285 9.06 76.3285 9.108H70.8445V8.472H75.8725L75.5365 8.724C75.5365 8.268 75.4365 7.864 75.2365 7.512C75.0445 7.152 74.7805 6.872 74.4445 6.672C74.1085 6.472 73.7205 6.372 73.2805 6.372C72.8485 6.372 72.4605 6.472 72.1165 6.672C71.7725 6.872 71.5045 7.152 71.3125 7.512C71.1205 7.872 71.0245 8.284 71.0245 8.748V8.88C71.0245 9.36 71.1285 9.784 71.3365 10.152C71.5525 10.512 71.8485 10.796 72.2245 11.004C72.6085 11.204 73.0445 11.304 73.5325 11.304C73.9165 11.304 74.2725 11.236 74.6005 11.1C74.9365 10.964 75.2245 10.756 75.4645 10.476L75.9445 11.028C75.6645 11.364 75.3125 11.62 74.8885 11.796C74.4725 11.972 74.0125 12.06 73.5085 12.06ZM85.9467 5.64C86.4587 5.64 86.9027 5.74 87.2787 5.94C87.6627 6.132 87.9587 6.428 88.1667 6.828C88.3827 7.228 88.4907 7.732 88.4907 8.34V12H87.6387V8.424C87.6387 7.76 87.4787 7.26 87.1587 6.924C86.8467 6.58 86.4027 6.408 85.8267 6.408C85.3947 6.408 85.0187 6.5 84.6987 6.684C84.3867 6.86 84.1427 7.12 83.9667 7.464C83.7987 7.8 83.7147 8.208 83.7147 8.688V12H82.8627V8.424C82.8627 7.76 82.7027 7.26 82.3827 6.924C82.0627 6.58 81.6147 6.408 81.0387 6.408C80.6147 6.408 80.2427 6.5 79.9227 6.684C79.6027 6.86 79.3547 7.12 79.1787 7.464C79.0107 7.8 78.9267 8.208 78.9267 8.688V12H78.0747V5.7H78.8907V7.404L78.7587 7.104C78.9507 6.648 79.2587 6.292 79.6827 6.036C80.1147 5.772 80.6227 5.64 81.2067 5.64C81.8227 5.64 82.3467 5.796 82.7787 6.108C83.2107 6.412 83.4907 6.872 83.6187 7.488L83.2827 7.356C83.4667 6.844 83.7907 6.432 84.2547 6.12C84.7267 5.8 85.2907 5.64 85.9467 5.64ZM90.7321 14.388C90.4361 14.388 90.1521 14.34 89.8801 14.244C89.6161 14.148 89.3881 14.004 89.1961 13.812L89.5921 13.176C89.7521 13.328 89.9241 13.444 90.1081 13.524C90.3001 13.612 90.5121 13.656 90.7441 13.656C91.0241 13.656 91.2641 13.576 91.4641 13.416C91.6721 13.264 91.8681 12.992 92.0521 12.6L92.4601 11.676L92.5561 11.544L95.1481 5.7H95.9881L92.8321 12.756C92.6561 13.164 92.4601 13.488 92.2441 13.728C92.0361 13.968 91.8081 14.136 91.5601 14.232C91.3121 14.336 91.0361 14.388 90.7321 14.388ZM92.4121 12.18L89.5081 5.7H90.3961L92.9641 11.484L92.4121 12.18Z" fill="#BDBDBD"/>
<path d="M111.215 5.75392L105.972 2.49957V2.49875L105.971 2.49916L105.971 2.49875V2.49957L100.785 5.75013V1.40658L106 0.830884L111.215 1.40658V5.75392ZM111.211 6.32987L109.126 7.62344L105.985 5.65607L105.979 6.22863L108.664 7.9096L108.201 8.19683L105.985 6.80853L105.979 7.3811L107.729 8.47648L107.316 8.76717L107.306 8.77351L105.985 7.95383L105.979 8.52631L106.847 9.06404L105.963 9.62244L100.796 6.3886L105.971 3.1139V3.11448L111.211 6.32987ZM111.215 11.7713L106 15.0384L100.785 11.7713V7.02542L105.978 10.2796L105.986 10.8693L102.424 8.63702L102.419 9.20959L105.995 11.4728L106.004 12.0782L102.429 9.83883L102.424 10.4113L106 12.6745L109.606 10.4026V7.95712L111.215 6.94552V11.7713ZM106 -3.17891e-07L100 0.662267V12.2411L106 16L112 12.2411V0.662267L106 -3.17891e-07Z" fill="#BDBDBD"/>
</svg>
