<svg xmlns="http://www.w3.org/2000/svg" width="20" height="16" fill="none"><path fill="#fff" fill-rule="evenodd" d="m13.674 13.522.003-.022h1.347l-.03.21a2.667 2.667 0 0 1-2.64 2.29H3.646a2.667 2.667 0 0 1-2.64-2.29L.19 8 0 6.667h4.556l-.224-2.68A3.68 3.68 0 0 1 11.618 3h-1.37a2.348 2.348 0 0 0-4.587.875l.233 2.792H9.5V8H6.058l.222 2.667h3.44l.014-.167h1.338l-.014.167H12.5V12h-1.553l-.222 2.667h1.629c.663 0 1.226-.488 1.32-1.145ZM4.72 8H1.537l.381 2.667h3.024L4.72 8Zm1.893 6.667L6.391 12H9.61l-.222 2.667H6.613ZM5.053 12l.222 2.667H3.646a1.333 1.333 0 0 1-1.32-1.145L2.11 12h2.944ZM15.8 10V7.2H13V5.8h2.8V3h1.4v2.8H20v1.4h-2.8V10h-1.4Z" clip-rule="evenodd"/></svg>