<svg xmlns="http://www.w3.org/2000/svg" width="52" height="56" fill="none"><path fill="#F0EBFF" fill-rule="evenodd" d="M24 4h8v3h-3v3.021a22.873 22.873 0 0 1 10.503 3.058c1.851-1.931 6.252.167 4.76 3.657A22.93 22.93 0 0 1 51 33c.001 12.703-10.296 23-22.999 23S5 45.703 5 33c0-6.67 2.84-12.677 7.376-16.878-.217.2-.43.405-.64.614-2.029-3.029 2.584-6.154 4.761-3.658A22.873 22.873 0 0 1 27 10.021V7h-3V4Z" clip-rule="evenodd"/><path fill="#7859CF" fill-rule="evenodd" d="M27 1h-6v1h6V1Zm-2 2h3V0h-8v3h3v3.021a22.873 22.873 0 0 0-9.606 2.565l-.14-.161c-1.538-1.768-3.859-1.442-5.3-.401-.739.535-1.351 1.314-1.602 2.254-.258.966-.11 2.025.554 3.015l.123.184A22.917 22.917 0 0 0 1 29c0 12.703 10.297 23 23 23s23-10.297 23-23c0-5.96-2.267-11.39-5.986-15.476l.169-.394c.462-1.083.492-2.128.169-3.043-.318-.9-.95-1.6-1.685-2.06-1.408-.884-3.534-1.055-4.89.364l-.181.19A22.874 22.874 0 0 0 25 6.02V3Zm-1 4c-3.86 0-7.487.994-10.64 2.74l-.36.207a22.002 22.002 0 0 0-3.93 2.895A21.941 21.941 0 0 0 2 29c0 12.15 9.85 22 22 22s22-9.85 22-22a21.931 21.931 0 0 0-6.821-15.925A22 22 0 0 0 35 9.947l-.364-.21A21.9 21.9 0 0 0 24 7ZM12.498 9.078a23.077 23.077 0 0 0-4.761 3.658 2.981 2.981 0 0 1-.436-.974c-.547-2.313 2.312-4.314 4.346-3.339.307.148.595.363.85.655Zm23.005 0a23.081 23.081 0 0 1 4.76 3.659c.167-.39.26-.762.291-1.114.21-2.336-2.31-3.742-4.103-3.14a2.326 2.326 0 0 0-.948.596ZM24 31a2 2 0 0 0 .864-3.804L23.95 27A2 2 0 0 0 24 31Zm-.636-4.932-1.346-4.936-.04-.147.048-.143 1.5-4.5.474-1.423.474 1.423 1.5 4.5.048.143-.04.147-1.346 4.936c.13.028.256.064.379.108l7.55-13.421.87.49-7.549 13.422a3 3 0 1 1-2.522-.6Zm-.342-5.053L24 24.6l.978-3.585L24 18.08l-.978 2.934Z" clip-rule="evenodd"/></svg>