<svg xmlns="http://www.w3.org/2000/svg" width="52" height="56" fill="none"><path fill="#F0EBFF" fill-rule="evenodd" d="M41.707 22.122C42.477 15.557 43.204 9.35 49 4c-26.493 0-34.153 8.128-38 14-8.542 13.037-.915 25.67.71 28.086a808.638 808.638 0 0 0-2.741 5.51A848.331 848.331 0 0 1 7 55.56l.881.44c.635-1.268 1.298-2.608 1.984-3.996a825.817 825.817 0 0 1 2.647-5.322c2.595.867 14.453 4.183 21.988-4.682 5.657-6.655 6.452-13.438 7.207-19.878Z" clip-rule="evenodd"/><path fill="#7859CF" fill-rule="evenodd" d="M8.232 41.055C12.19 33.258 16.686 25.095 21.267 20l.733.656c-4.569 5.082-9.07 13.297-13.032 21.123A26.195 26.195 0 0 0 16.09 43c4.384.12 9.663-.96 13.648-5.648 5.46-6.423 6.225-12.946 6.983-19.406l.015-.129c.681-5.81 1.384-11.634 5.875-16.794-11.79.23-19.481 2.162-24.667 4.675-5.5 2.665-8.252 6.018-10.108 8.85-4.553 6.95-4.318 13.762-2.933 18.878a28.925 28.925 0 0 0 2.483 6.182c.32.59.612 1.076.846 1.447Zm-.521 1.031C6.085 39.67-1.542 27.037 7 14 10.776 8.236 18.226.3 43.552.008 44.03.003 44.511 0 45 0c-.36.331-.699.666-1.02 1.004-4.866 5.116-5.551 10.96-6.273 17.118-.755 6.44-1.55 13.223-7.207 19.878-7.535 8.865-19.393 5.549-21.988 4.682-.915 1.817-1.799 3.606-2.647 5.322C5.179 49.392 4.516 50.732 3.88 52L3 51.56c.63-1.258 1.288-2.587 1.969-3.964a808.174 808.174 0 0 1 2.742-5.51Z" clip-rule="evenodd"/></svg>