<svg xmlns="http://www.w3.org/2000/svg" width="82" height="36" fill="none"><path fill="#333" d="M76.936 17.24h4.2v6.96c-.96.688-2.064 1.216-3.312 1.584a13.18 13.18 0 0 1-3.744.552c-1.76 0-3.344-.368-4.752-1.104-1.408-.752-2.512-1.792-3.312-3.12-.8-1.328-1.2-2.832-1.2-4.512 0-1.68.4-3.184 1.2-4.512.8-1.328 1.912-2.36 3.336-3.096 1.424-.752 3.032-1.128 4.824-1.128 1.568 0 2.976.264 4.224.792 1.248.528 2.288 1.288 3.12 2.28l-3.024 2.736C77.36 13.424 76 12.8 74.416 12.8c-1.44 0-2.6.44-3.48 1.32-.88.864-1.32 2.024-1.32 3.48 0 .928.2 1.76.6 2.496.4.72.96 1.288 1.68 1.704.72.4 1.544.6 2.472.6.912 0 1.768-.184 2.568-.552V17.24Z"/><path fill="#7859CF" fill-rule="evenodd" d="M58 18c0 2.874-.599 5.59-1.663 8H43c2.463-3.772 5-8.34 5-13C48 7.002 43.938 1.953 38.416.453A14.35 14.35 0 0 1 42 0c8.837 0 16 8.059 16 18Zm-14-5a9 9 0 0 0-9-9c-6.65 0-9 8.507-9 14 0 9.941 7.163 18 16 18 4.739 0 8.996-2.318 11.926-6H35c.352-.449.72-.91 1.099-1.386C39.616 24.201 44 18.7 44 13Z" clip-rule="evenodd"/><path fill="#333" d="M1.852 9.2h7.944c1.84 0 3.472.344 4.896 1.032 1.424.688 2.528 1.664 3.312 2.928.784 1.264 1.176 2.744 1.176 4.44 0 1.696-.392 3.176-1.176 4.44-.784 1.264-1.888 2.24-3.312 2.928C13.268 25.656 11.636 26 9.796 26H1.852V9.2Zm7.752 13.008c1.44 0 2.592-.408 3.456-1.224.88-.816 1.32-1.944 1.32-3.384s-.44-2.568-1.32-3.384c-.864-.816-2.016-1.224-3.456-1.224h-3v9.216h3Z"/></svg>