<svg xmlns="http://www.w3.org/2000/svg" width="12" height="16" fill="none"><path fill="#BDBDBD" d="M11.215 5.754 5.972 2.5v-.001H5.97L.785 5.75V1.407L6 .83l5.215.576v4.347Zm-.004.576L9.126 7.623 5.985 5.656l-.006.573 2.685 1.68-.463.288-2.216-1.388-.006.572 1.75 1.095-.413.291-.01.007-1.321-.82-.006.572.867.538-.883.558L.796 6.39l5.175-3.275 5.24 3.216Zm.004 5.441L6 15.038.785 11.771V7.025l5.193 3.255.008.59-3.562-2.233-.005.573 3.576 2.263.01.605-3.576-2.24-.005.573L6 12.675l3.606-2.272V7.957l1.61-1.011v4.825ZM6 0 0 .662v11.58L6 16l6-3.759V.662L6 0Z"/></svg>