<svg xmlns="http://www.w3.org/2000/svg" width="20" height="20" fill="none"><path fill="#BDBDBD" fill-rule="evenodd" d="M1.4 1.4C0 2.812 0 5.074 0 9.6v.914c0 4.456 0 6.698 1.4 8.086C2.812 20 5.074 20 9.6 20h.913c4.457 0 6.699 0 8.087-1.4 1.4-1.412 1.4-3.674 1.4-8.2v-.913c0-4.457 0-6.699-1.4-8.087C17.188 0 14.926 0 10.4 0h-.914C5.03 0 2.788 0 1.4 1.4Zm8.62 8.797a3.034 3.034 0 0 0 3.028-3.028 3.038 3.038 0 0 0-6.075 0 3.038 3.038 0 0 0 3.046 3.028Zm0-4.28c.688 0 1.25.563 1.25 1.252 0 .689-.562 1.251-1.25 1.251-.69 0-1.252-.562-1.252-1.251-.018-.69.544-1.251 1.251-1.251Zm1.214 6.764a5.729 5.729 0 0 0 1.76-.725.883.883 0 0 0 .271-1.233.883.883 0 0 0-1.233-.272 3.85 3.85 0 0 1-4.08 0 .903.903 0 0 0-1.233.272.904.904 0 0 0 .308 1.215c.544.345 1.143.58 1.76.725L7.1 14.35a.886.886 0 0 0 0 1.251.861.861 0 0 0 .635.254.94.94 0 0 0 .634-.254l1.668-1.668 1.669 1.668a.887.887 0 0 0 1.251 0 .887.887 0 0 0 0-1.251l-1.723-1.668Z" clip-rule="evenodd"/></svg>