<svg xmlns="http://www.w3.org/2000/svg" width="52" height="56" fill="none"><path fill="#F0EBFF" d="M4 4h48l-4 44-20 8-20-8L4 4Z"/><path fill="#7859CF" fill-rule="evenodd" d="M1.004 0H0l.09 1L4 44l20 8 20-8 3.91-43L48 0H1.004Zm.091 1 .364 4H46.54l.364-4H1.095Zm40.812 5H6.093l.101 1.132-.498.045-.498.044L5.089 6H1.55L4.94 43.3 24 50.922l19.06-7.624L46.45 6h-3.54l-.108 1.221-.498-.044-.498-.045.1-1.132ZM6.092 11.62l-.498.044.396 4.442.498-.045.498-.044-.396-4.442-.498.044Zm.791 8.884-.498.044.396 4.442.498-.044.498-.044-.396-4.443-.498.045Zm.792 8.884-.498.045.396 4.442.498-.044.498-.045-.396-4.442-.498.044Zm.792 8.885-.498.044.198 2.221 1.979.808.189-.463.189-.463-1.415-.577-.144-1.614-.498.044Zm5.826 4.226-.189.462 3.959 1.616.188-.463.19-.463-3.959-1.615-.189.463Zm7.917 3.23-.19.463L24 47l1.98-.808-.19-.463-.189-.463L24 45.92l-1.601-.654-.19.463Zm7.539-1.615.189.463 3.958-1.615-.19-.463-.188-.463-3.958 1.615.189.463Zm7.916-3.23.19.462 1.978-.807.198-2.222-.498-.044-.498-.044-.144 1.614-1.415.577.19.463Zm2.264-7.053.498.044.396-4.442-.498-.045-.498-.044-.396 4.442.498.045Zm.792-8.885.498.044.396-4.442-.498-.044-.498-.045-.396 4.443.498.044Zm.791-8.885.498.045.396-4.443-.498-.044-.498-.044-.396 4.442.498.044Z" clip-rule="evenodd"/></svg>