<svg xmlns="http://www.w3.org/2000/svg" width="13" height="16" fill="none"><path fill="#7859CF" fill-rule="evenodd" d="M1.478 1.49C.407 2.09-.173 3.236.046 4.32l.358 1.774c.926 3.123 2.5 5.769 4.825 8.109l1.405 1.188c.857.726 2.17.811 3.24.211l2.23-1.249c.873-.488 1.162-1.534.626-2.259l-1.935-2.613c-.516-.697-1.588-.812-2.366-.253l-1.375.988c-1.228-.88-2.008-2.19-2.179-3.662l1.57-.662c.887-.374 1.32-1.333.957-2.114L6.037.845C5.658.032 4.58-.247 3.707.241l-2.23 1.25Zm-.196 2.528c-.119-.59.197-1.216.782-1.543l2.23-1.25c.217-.121.487-.051.582.152L6.24 4.309c.091.196-.017.435-.239.529l-2.43 1.025.016.416c.082 2.126 1.212 4.025 3.068 5.157l.364.221 2.13-1.53c.194-.14.462-.11.591.064l1.935 2.613c.134.181.061.443-.157.565l-2.23 1.249c-.583.327-1.3.28-1.767-.115l-1.405-1.189C4.39 11.62 2.29 8.091 1.641 5.792l-.359-1.774Z" clip-rule="evenodd"/></svg>