<?xml version="1.0" encoding="UTF-8"?>
<svg xmlns="http://www.w3.org/2000/svg" xmlns:xlink="http://www.w3.org/1999/xlink" width="32px" height="32px" viewBox="0 0 32 32" version="1.1">
<g id="surface1">
<path style=" stroke:none;fill-rule:nonzero;fill:rgb(69.803922%,18.039216%,78.431373%);fill-opacity:1;" d="M 8.867188 11.351562 C 8.867188 11.351562 7.71875 12.039062 7.464844 13.171875 C 7.207031 14.300781 7.464844 15.542969 7.464844 15.542969 C 7.464844 15.542969 5.667969 16.285156 5.667969 18.617188 C 5.667969 20.949219 7.183594 21.609375 7.183594 21.609375 C 7.183594 21.609375 7.199219 24.363281 8.898438 25.847656 C 10.59375 27.332031 12.375 27.339844 12.375 27.339844 C 12.375 27.339844 13.300781 29.296875 16.027344 29.296875 C 18.753906 29.296875 19.679688 27.339844 19.679688 27.339844 C 19.679688 27.339844 21.523438 27.070312 23.15625 25.847656 C 24.792969 24.625 24.746094 21.609375 24.746094 21.609375 C 24.746094 21.609375 26.390625 20.949219 26.390625 18.617188 C 26.390625 16.285156 24.589844 15.542969 24.589844 15.542969 C 24.589844 15.542969 24.847656 14.300781 24.589844 13.171875 C 24.335938 12.039062 23.1875 11.351562 23.1875 11.351562 "/>
<path style=" stroke:none;fill-rule:nonzero;fill:rgb(69.803922%,18.039216%,78.431373%);fill-opacity:1;" d="M 24.644531 14.855469 C 24.644531 10.09375 20.78125 8.75 16.019531 8.75 C 11.253906 8.75 7.390625 10.09375 7.390625 14.855469 C 7.390625 19.621094 11.253906 23.484375 16.019531 23.484375 C 20.78125 23.484375 24.644531 19.621094 24.644531 14.855469 Z M 24.644531 14.855469 "/>
<path style=" stroke:none;fill-rule:nonzero;fill:rgb(41.568627%,6.27451%,47.843137%);fill-opacity:1;" d="M 16.292969 29.292969 C 16.292969 29.292969 18.625 27.660156 18.472656 23.910156 C 19.476562 22.867188 19.785156 21.464844 18.875 19.761719 C 20.414062 17.566406 20.253906 15.191406 18.414062 13.394531 C 19.171875 12.296875 18.773438 11.351562 17.917969 10.636719 C 17.917969 10.636719 20.386719 11.847656 22.277344 10.117188 C 22.277344 10.117188 26.25 12.976562 24.589844 15.542969 C 24.589844 15.542969 28.980469 18.507812 24.746094 21.609375 C 24.746094 21.609375 25.363281 26.335938 19.785156 27.320312 C 19.785156 27.320312 18.316406 28.984375 16.292969 29.292969 Z M 16.292969 29.292969 "/>
<path style=" stroke:none;fill-rule:nonzero;fill:rgb(5.882353%,50.196078%,36.470588%);fill-opacity:1;" d="M 24.792969 5.003906 C 22.894531 13.863281 17.070312 10.84375 16.277344 9.285156 C 15.484375 7.726562 16.25 1.527344 24.792969 5.003906 Z M 24.792969 5.003906 "/>
<path style=" stroke:none;fill-rule:nonzero;fill:rgb(5.882353%,50.196078%,36.470588%);fill-opacity:1;" d="M 7.265625 5.003906 C 9.160156 13.863281 14.984375 10.84375 15.777344 9.285156 C 16.570312 7.726562 15.804688 1.527344 7.265625 5.003906 Z M 7.265625 5.003906 "/>
<path style="fill:none;stroke-width:2;stroke-linecap:round;stroke-linejoin:round;stroke:rgb(0%,0%,0%);stroke-opacity:1;stroke-miterlimit:10;" d="M 40.282227 8.131348 C 37.203613 22.527832 27.739258 17.621094 26.450684 15.088379 C 25.162109 12.555664 26.40625 2.481934 40.282227 8.131348 Z M 40.282227 8.131348 " transform="matrix(0.615385,0,0,0.615385,0,0)"/>
<path style="fill:none;stroke-width:2;stroke-linecap:round;stroke-linejoin:round;stroke:rgb(0%,0%,0%);stroke-opacity:1;stroke-miterlimit:10;" d="M 32.912598 11.044922 C 30.652832 11.914551 27.758301 13.311035 26.476074 15.132812 M 11.806641 8.131348 C 14.885254 22.527832 24.349609 17.621094 25.638184 15.088379 C 26.926758 12.555664 25.682617 2.481934 11.806641 8.131348 Z M 11.806641 8.131348 " transform="matrix(0.615385,0,0,0.615385,0,0)"/>
<path style="fill:none;stroke-width:2;stroke-linecap:round;stroke-linejoin:round;stroke:rgb(0%,0%,0%);stroke-opacity:1;stroke-miterlimit:10;" d="M 19.17627 11.044922 C 21.436035 11.914551 24.330566 13.311035 25.612793 15.132812 M 14.40918 18.446289 C 14.40918 18.446289 12.542969 19.563477 12.130371 21.404297 C 11.711426 23.23877 12.130371 25.257324 12.130371 25.257324 C 12.130371 25.257324 9.210449 26.463379 9.210449 30.25293 C 9.210449 34.04248 11.67334 35.115234 11.67334 35.115234 C 11.67334 35.115234 11.69873 39.590332 14.459961 42.002441 C 17.214844 44.414551 20.109375 44.427246 20.109375 44.427246 C 20.109375 44.427246 21.61377 47.607422 26.044434 47.607422 C 30.475098 47.607422 31.979492 44.427246 31.979492 44.427246 C 31.979492 44.427246 34.975586 43.989258 37.628906 42.002441 C 40.288574 40.015625 40.212402 35.115234 40.212402 35.115234 C 40.212402 35.115234 42.884766 34.04248 42.884766 30.25293 C 42.884766 26.463379 39.958496 25.257324 39.958496 25.257324 C 39.958496 25.257324 40.377441 23.23877 39.958496 21.404297 C 39.545898 19.563477 37.679688 18.446289 37.679688 18.446289 " transform="matrix(0.615385,0,0,0.615385,0,0)"/>
<path style="fill:none;stroke-width:2;stroke-linecap:round;stroke-linejoin:round;stroke:rgb(0%,0%,0%);stroke-opacity:1;stroke-miterlimit:10;" d="M 30.506836 21.290039 C 30.506836 21.290039 28.621582 23.283203 26.285645 23.283203 M 21.905762 21.290039 C 21.905762 21.290039 23.797363 23.283203 26.126953 23.283203 M 36.15625 28.54541 C 36.15625 30.633789 34.366211 32.328613 32.150879 32.328613 M 27.993164 28.54541 C 27.993164 30.633789 29.789551 32.328613 31.998535 32.328613 M 24.470215 28.54541 C 24.470215 30.633789 22.680176 32.328613 20.464844 32.328613 M 16.307129 28.54541 C 16.307129 30.633789 18.103516 32.328613 20.3125 32.328613 M 30.265625 38.898438 C 29.510254 39.901367 27.980469 40.586914 26.222168 40.586914 M 21.912109 38.777832 C 22.629395 39.844238 24.209961 40.586914 26.044434 40.586914 M 21.874023 39.038086 C 21.874023 39.933105 21.321777 40.739258 20.433105 41.304199 M 30.310059 39.038086 C 30.310059 40.015625 30.970215 40.885254 31.998535 41.456543 " transform="matrix(0.615385,0,0,0.615385,0,0)"/>
<path style="fill:none;stroke-width:2;stroke-linecap:round;stroke-linejoin:round;stroke:rgb(0%,0%,0%);stroke-opacity:1;stroke-miterlimit:10;" d="M 16.910156 30.817871 C 16.910156 32.525391 15.710449 33.972656 14.060059 34.442383 M 18.06543 21.264648 C 18.06543 23.499023 16.269043 25.308105 14.060059 25.308105 M 33.490234 21.264648 C 33.490234 23.499023 35.286621 25.308105 37.495605 25.308105 M 35.572266 30.817871 C 35.572266 32.449219 36.664062 33.839355 38.200195 34.372559 " transform="matrix(0.615385,0,0,0.615385,0,0)"/>
</g>
</svg>
