<svg width="170" height="36" fill="none" xmlns="http://www.w3.org/2000/svg"><path d="M140.08 26.336c-1.328 0-2.56-.208-3.696-.624a8.824 8.824 0 0 1-2.952-1.824 8.564 8.564 0 0 1-1.92-2.76c-.464-1.072-.696-2.248-.696-3.528 0-1.28.232-2.448.696-3.504a8.324 8.324 0 0 1 1.944-2.784 8.52 8.52 0 0 1 2.952-1.8c1.152-.432 2.408-.648 3.768-.648 1.584 0 3 .264 4.248.792 1.248.528 2.28 1.288 3.096 2.28l-3.024 2.736c-.576-.624-1.2-1.088-1.872-1.392-.656-.32-1.392-.48-2.208-.48-.72 0-1.376.112-1.968.336a4.063 4.063 0 0 0-1.512.984c-.416.416-.744.92-.984 1.512-.224.576-.336 1.232-.336 1.968 0 .704.112 1.352.336 1.944.24.592.568 1.104.984 1.536.416.416.912.744 1.488.984.592.224 1.24.336 1.944.336s1.392-.112 2.064-.336c.672-.24 1.352-.64 2.04-1.2l2.664 3.336c-.96.688-2.072 1.216-3.336 1.584a13.268 13.268 0 0 1-3.72.552Zm2.856-2.76V17.24h4.2v6.96l-4.2-.624Zm16.165 2.76c-1.344 0-2.584-.216-3.72-.648a9.096 9.096 0 0 1-2.976-1.824 8.657 8.657 0 0 1-1.944-2.784c-.464-1.056-.696-2.216-.696-3.48 0-1.264.232-2.424.696-3.48a8.39 8.39 0 0 1 1.944-2.76 8.891 8.891 0 0 1 2.976-1.848c1.136-.432 2.376-.648 3.72-.648 1.36 0 2.6.216 3.72.648a8.63 8.63 0 0 1 2.952 1.848 8.39 8.39 0 0 1 1.944 2.76c.48 1.056.72 2.216.72 3.48 0 1.264-.24 2.432-.72 3.504a8.39 8.39 0 0 1-1.944 2.76 8.824 8.824 0 0 1-2.952 1.824c-1.12.432-2.36.648-3.72.648Zm0-3.936a4.62 4.62 0 0 0 1.776-.336 4.064 4.064 0 0 0 1.44-.96c.416-.432.736-.944.96-1.536.24-.592.36-1.248.36-1.968 0-.736-.12-1.392-.36-1.968a4.216 4.216 0 0 0-.96-1.512c-.4-.432-.88-.76-1.44-.984a4.62 4.62 0 0 0-1.776-.336c-.64 0-1.24.112-1.8.336a4.202 4.202 0 0 0-1.44.984 4.7 4.7 0 0 0-.96 1.512c-.224.576-.336 1.232-.336 1.968 0 .72.112 1.376.336 1.968a5 5 0 0 0 .96 1.536 4.37 4.37 0 0 0 1.44.96c.56.224 1.16.336 1.8.336Z" fill="#333"/><path fill-rule="evenodd" clip-rule="evenodd" d="M124 18c0 2.874-.599 5.59-1.663 8H109c2.463-3.772 5-8.34 5-13 0-5.998-4.062-11.047-9.584-12.547A14.348 14.348 0 0 1 108 0c8.837 0 16 8.059 16 18Zm-14-5a9 9 0 0 0-9-9c-6.65 0-9 8.507-9 14 0 9.941 7.163 18 16 18 4.739 0 8.996-2.318 11.926-6H101c.352-.449.72-.91 1.099-1.386C105.616 24.201 110 18.7 110 13Z" fill="#7859CF"/><path d="M2.65 26V9.2h7.945c1.856 0 3.488.344 4.896 1.032 1.408.688 2.504 1.656 3.288 2.904.8 1.248 1.2 2.736 1.2 4.464 0 1.712-.4 3.2-1.2 4.464-.784 1.248-1.88 2.216-3.288 2.904-1.408.688-3.04 1.032-4.896 1.032H2.65Zm4.753-3.792h3c.96 0 1.792-.176 2.496-.528a4.013 4.013 0 0 0 1.68-1.584c.4-.704.6-1.536.6-2.496 0-.976-.2-1.808-.6-2.496a3.863 3.863 0 0 0-1.68-1.56c-.704-.368-1.536-.552-2.496-.552h-3v9.216ZM22.959 26V9.2h7.68c1.536 0 2.856.248 3.96.744 1.12.496 1.984 1.216 2.592 2.16.608.928.912 2.032.912 3.312 0 1.264-.304 2.36-.912 3.288-.608.912-1.472 1.616-2.592 2.112-1.104.48-2.424.72-3.96.72h-5.04l2.112-1.992V26h-4.752Zm10.392 0-4.176-6.12h5.064l4.2 6.12H33.35Zm-5.64-5.952-2.112-2.184h4.752c.992 0 1.728-.216 2.208-.648.496-.432.744-1.032.744-1.8 0-.784-.248-1.392-.744-1.824-.48-.432-1.216-.648-2.208-.648h-4.752l2.112-2.184v9.288ZM41.204 26V9.2h4.752V26h-4.752Zm8.613 0V9.2h3.912l9.264 11.184h-1.848V9.2h4.656V26H61.89l-9.264-11.184h1.848V26h-4.656Zm24.064-3.72-.264-5.328L80.841 9.2h5.232l-7.2 7.8-2.64 2.76-2.352 2.52ZM69.633 26V9.2h4.704V26h-4.704Zm11.28 0-5.472-6.936 3.096-3.312L86.433 26h-5.52Z" fill="#333"/></svg>