<svg width="38" height="50" fill="none" xmlns="http://www.w3.org/2000/svg"><ellipse cx="19" cy="48.5" rx="8" ry="1.5" fill="#7859CF" fill-opacity=".25"/><path d="M38 20c0 15.046-19 24-19 24S0 35.046 0 20C0 8.954 8.507 0 19 0s19 8.954 19 20Z" fill="#7859CF"/><path fill-rule="evenodd" clip-rule="evenodd" d="M19 36c8.284 0 15-7.163 15-16 0-8.836-6.716-16-15-16-8.284 0-15 7.164-15 16 0 8.837 6.716 16 15 16Zm9.857-10.667A12.847 12.847 0 0 0 30 20c0-6.627-4.925-12-11-12-.847 0-1.672.104-2.464.302 3.797 1 6.59 4.366 6.59 8.365 0 3.107-1.745 6.152-3.438 8.666h9.169Zm-14.67-14.666c3.418 0 6.188 2.686 6.188 6 0 3.8-3.014 7.467-5.432 10.409-.26.317-.514.625-.755.924h13.011c-2.014 2.455-4.941 4-8.199 4-6.075 0-11-5.373-11-12 0-3.662 1.615-9.334 6.188-9.334Z" fill="#fff"/></svg>