<svg viewBox="0 0 33 32" fill="none" xmlns="http://www.w3.org/2000/svg"><path d="M25.83 9.33c0-1.46-1.2-2.66-2.66-2.66h-4v2.66h4v3.54l-4.64 5.8h-4.7v-6.67h-5.33a5.33 5.33 0 0 0-5.33 5.33v4h2.66a4 4 0 1 0 8 0h5.98l6.02-7.53v-4.47Zm-20 9.34v-1.34c0-1.46 1.2-2.66 2.67-2.66h2.67v4h-5.34Zm4 4c-.73 0-1.33-.6-1.33-1.34h2.67c0 .74-.6 1.34-1.34 1.34Z" fill="#0F805D"/><path d="M7.17 8h6.66v2.67h-6.66v-2.67Zm18.66 9.33a4 4 0 1 0 0 8 4 4 0 0 0 0-8Zm0 5.34a1.34 1.34 0 0 1 0-2.67 1.34 1.34 0 1 1 0 2.67Z" fill="#0F805D"/></svg>