<svg viewBox="0 0 20 24" fill="none" xmlns="http://www.w3.org/2000/svg"><path d="M10.11 0h-.07l-10.04.99v17.38l10.04 5.63 9.96-5.63v-17.38l-9.89-.99Zm8.48 8.52-8.55-4.79v-.07h-.08l-.07-.07v.07l-8.48 4.86v-6.34l8.55-.84 8.63.84v6.34Zm-8.63-3.73 8.55 4.71-3.34 1.83-5.28-2.95v.98l4.39 2.46-.67.36-3.72-2.12v.99l2.82 1.62-.6.35-2.22-1.27v.99l1.41.77-1.34.78-8.47-4.72 8.47-4.78Zm-8.55 5.84 8.48 4.78v.7l-5.88-3.3v.98l5.95 3.38v.78l-5.95-3.31v.98l5.95 3.38 6.03-3.45v-3.66l2.52-1.4v7.03l-8.55 4.86-8.55-4.78v-6.97Z" fill="#000"/></svg>