<svg width="112" height="16" viewBox="0 0 112 16"  xmlns="http://www.w3.org/2000/svg">
<path d="M9.17316 3.6V12H8.29716V8.124H3.04116V12H2.15316V3.6H3.04116V7.344H8.29716V3.6H9.17316ZM13.5469 4.368H10.5949V3.6H17.3869V4.368H14.4349V12H13.5469V4.368ZM27.5295 3.6V12H26.6775V5.28L23.3775 10.932H22.9575L19.6575 5.316V12H18.8055V3.6H19.5375L23.1855 9.828L26.7975 3.6H27.5295ZM30.2664 3.6H31.1544V11.232H35.8584V12H30.2664V3.6ZM45.7415 9.756H41.0615L40.0535 12H39.1295L42.9695 3.6H43.8455L47.6855 12H46.7495L45.7415 9.756ZM45.4175 9.036L43.4015 4.524L41.3855 9.036H45.4175ZM51.4524 12.06C50.8284 12.06 50.2684 11.924 49.7724 11.652C49.2844 11.38 48.9004 11 48.6204 10.512C48.3404 10.016 48.2004 9.46 48.2004 8.844C48.2004 8.228 48.3404 7.676 48.6204 7.188C48.9004 6.7 49.2844 6.32 49.7724 6.048C50.2684 5.776 50.8284 5.64 51.4524 5.64C51.9964 5.64 52.4804 5.748 52.9044 5.964C53.3364 6.172 53.6764 6.48 53.9244 6.888L53.2884 7.32C53.0804 7.008 52.8164 6.776 52.4964 6.624C52.1764 6.464 51.8284 6.384 51.4524 6.384C50.9964 6.384 50.5844 6.488 50.2164 6.696C49.8564 6.896 49.5724 7.184 49.3644 7.56C49.1644 7.936 49.0644 8.364 49.0644 8.844C49.0644 9.332 49.1644 9.764 49.3644 10.14C49.5724 10.508 49.8564 10.796 50.2164 11.004C50.5844 11.204 50.9964 11.304 51.4524 11.304C51.8284 11.304 52.1764 11.228 52.4964 11.076C52.8164 10.924 53.0804 10.692 53.2884 10.38L53.9244 10.812C53.6764 11.22 53.3364 11.532 52.9044 11.748C52.4724 11.956 51.9884 12.06 51.4524 12.06ZM57.8062 5.64C58.6302 5.64 59.2622 5.848 59.7022 6.264C60.1422 6.672 60.3622 7.28 60.3622 8.088V12H59.5462V11.016C59.3542 11.344 59.0702 11.6 58.6942 11.784C58.3262 11.968 57.8862 12.06 57.3742 12.06C56.6702 12.06 56.1102 11.892 55.6942 11.556C55.2782 11.22 55.0702 10.776 55.0702 10.224C55.0702 9.688 55.2622 9.256 55.6462 8.928C56.0382 8.6 56.6582 8.436 57.5062 8.436H59.5102V8.052C59.5102 7.508 59.3582 7.096 59.0542 6.816C58.7502 6.528 58.3062 6.384 57.7222 6.384C57.3222 6.384 56.9382 6.452 56.5702 6.588C56.2022 6.716 55.8862 6.896 55.6222 7.128L55.2382 6.492C55.5582 6.22 55.9422 6.012 56.3902 5.868C56.8382 5.716 57.3102 5.64 57.8062 5.64ZM57.5062 11.388C57.9862 11.388 58.3982 11.28 58.7422 11.064C59.0862 10.84 59.3422 10.52 59.5102 10.104V9.072H57.5302C56.4502 9.072 55.9102 9.448 55.9102 10.2C55.9102 10.568 56.0502 10.86 56.3302 11.076C56.6102 11.284 57.0022 11.388 57.5062 11.388ZM68.4597 3.096V12H67.6437V10.752C67.3877 11.176 67.0477 11.5 66.6237 11.724C66.2077 11.948 65.7357 12.06 65.2077 12.06C64.6157 12.06 64.0797 11.924 63.5997 11.652C63.1197 11.38 62.7437 11 62.4717 10.512C62.1997 10.024 62.0637 9.468 62.0637 8.844C62.0637 8.22 62.1997 7.664 62.4717 7.176C62.7437 6.688 63.1197 6.312 63.5997 6.048C64.0797 5.776 64.6157 5.64 65.2077 5.64C65.7197 5.64 66.1797 5.748 66.5877 5.964C67.0037 6.172 67.3437 6.48 67.6077 6.888V3.096H68.4597ZM65.2797 11.304C65.7197 11.304 66.1157 11.204 66.4677 11.004C66.8277 10.796 67.1077 10.504 67.3077 10.128C67.5157 9.752 67.6197 9.324 67.6197 8.844C67.6197 8.364 67.5157 7.936 67.3077 7.56C67.1077 7.184 66.8277 6.896 66.4677 6.696C66.1157 6.488 65.7197 6.384 65.2797 6.384C64.8317 6.384 64.4277 6.488 64.0677 6.696C63.7157 6.896 63.4357 7.184 63.2277 7.56C63.0277 7.936 62.9277 8.364 62.9277 8.844C62.9277 9.324 63.0277 9.752 63.2277 10.128C63.4357 10.504 63.7157 10.796 64.0677 11.004C64.4277 11.204 64.8317 11.304 65.2797 11.304ZM76.3285 9.108H71.0485C71.0965 9.764 71.3485 10.296 71.8045 10.704C72.2605 11.104 72.8365 11.304 73.5325 11.304C73.9245 11.304 74.2845 11.236 74.6125 11.1C74.9405 10.956 75.2245 10.748 75.4645 10.476L75.9445 11.028C75.6645 11.364 75.3125 11.62 74.8885 11.796C74.4725 11.972 74.0125 12.06 73.5085 12.06C72.8605 12.06 72.2845 11.924 71.7805 11.652C71.2845 11.372 70.8965 10.988 70.6165 10.5C70.3365 10.012 70.1965 9.46 70.1965 8.844C70.1965 8.228 70.3285 7.676 70.5925 7.188C70.8645 6.7 71.2325 6.32 71.6965 6.048C72.1685 5.776 72.6965 5.64 73.2805 5.64C73.8645 5.64 74.3885 5.776 74.8525 6.048C75.3165 6.32 75.6805 6.7 75.9445 7.188C76.2085 7.668 76.3405 8.22 76.3405 8.844L76.3285 9.108ZM73.2805 6.372C72.6725 6.372 72.1605 6.568 71.7445 6.96C71.3365 7.344 71.1045 7.848 71.0485 8.472H75.5245C75.4685 7.848 75.2325 7.344 74.8165 6.96C74.4085 6.568 73.8965 6.372 73.2805 6.372ZM85.9467 5.64C86.7387 5.64 87.3587 5.868 87.8067 6.324C88.2627 6.78 88.4907 7.452 88.4907 8.34V12H87.6387V8.424C87.6387 7.768 87.4787 7.268 87.1587 6.924C86.8467 6.58 86.4027 6.408 85.8267 6.408C85.1707 6.408 84.6547 6.612 84.2787 7.02C83.9027 7.42 83.7147 7.976 83.7147 8.688V12H82.8627V8.424C82.8627 7.768 82.7027 7.268 82.3827 6.924C82.0707 6.58 81.6227 6.408 81.0387 6.408C80.3907 6.408 79.8747 6.612 79.4907 7.02C79.1147 7.42 78.9267 7.976 78.9267 8.688V12H78.0747V5.688H78.8907V6.84C79.1147 6.456 79.4267 6.16 79.8267 5.952C80.2267 5.744 80.6867 5.64 81.2067 5.64C81.7347 5.64 82.1907 5.752 82.5747 5.976C82.9667 6.2 83.2587 6.532 83.4507 6.972C83.6827 6.556 84.0147 6.232 84.4467 6C84.8867 5.76 85.3867 5.64 85.9467 5.64ZM95.9881 5.688L92.8321 12.756C92.5761 13.348 92.2801 13.768 91.9441 14.016C91.6081 14.264 91.2041 14.388 90.7321 14.388C90.4281 14.388 90.1441 14.34 89.8801 14.244C89.6161 14.148 89.3881 14.004 89.1961 13.812L89.5921 13.176C89.9121 13.496 90.2961 13.656 90.7441 13.656C91.0321 13.656 91.2761 13.576 91.4761 13.416C91.6841 13.256 91.8761 12.984 92.0521 12.6L92.3281 11.988L89.5081 5.688H90.3961L92.7721 11.052L95.1481 5.688H95.9881Z" />
<path d="M111.215 5.75392L105.972 2.49957V2.49875L105.971 2.49916L105.971 2.49875V2.49957L100.785 5.75013V1.40658L106 0.830884L111.215 1.40658V5.75392ZM111.211 6.32987L109.126 7.62344L105.985 5.65607L105.979 6.22863L108.664 7.9096L108.201 8.19683L105.985 6.80853L105.979 7.3811L107.729 8.47648L107.316 8.76717L107.306 8.77351L105.985 7.95383L105.979 8.52631L106.847 9.06404L105.963 9.62244L100.796 6.3886L105.971 3.1139V3.11448L111.211 6.32987ZM111.215 11.7713L106 15.0384L100.785 11.7713V7.02542L105.978 10.2796L105.986 10.8693L102.424 8.63702L102.419 9.20959L105.995 11.4728L106.004 12.0782L102.429 9.83883L102.424 10.4113L106 12.6745L109.606 10.4026V7.95712L111.215 6.94552V11.7713ZM106 -3.17891e-07L100 0.662267V12.2411L106 16L112 12.2411V0.662267L106 -3.17891e-07Z" />
</svg>
