<svg viewBox="0 0 52 56" fill="none" xmlns="http://www.w3.org/2000/svg"><path d="M4 4h48l-4 44-20 8-20-8-4-44Z" fill="#F0EBFF"/><path fill-rule="evenodd" clip-rule="evenodd" d="M1 0h-1l.1 1 3.9 43 20 8 20-8 3.9-43 .1-1h-47Zm.1 1 .36 4h45.08l.37-4h-45.81Zm40.8 5h-35.8l.1 1.13-.5.05-.5.04-.11-1.22h-3.54l3.39 37.3 19.06 7.62 19.06-7.62 3.39-37.3h-3.54l-.1 1.22-.5-.04-.5-.05.1-1.13Zm-35.8 5.62-.5.04.39 4.45.5-.05.5-.04-.4-4.45-.5.05Zm.78 8.88-.5.05.4 4.44.5-.04.5-.05-.4-4.44-.5.04Zm.8 8.89-.5.04.4 4.45.5-.05.49-.04-.4-4.45-.5.05Zm.79 8.88-.5.05.2 2.22 1.98.8.18-.46.2-.46-1.42-.58-.15-1.61-.5.04Zm5.82 4.23-.19.46 3.96 1.62.2-.47.18-.46-3.96-1.61-.19.46Zm7.92 3.23-.19.46 1.98.81 1.98-.8-.19-.47-.19-.46-1.6.65-1.6-.65-.19.46Zm7.54-1.62.19.47 3.96-1.62-.2-.46-.18-.46-3.96 1.61.19.46Zm7.92-3.23.18.47 1.98-.81.2-2.22-.5-.05-.5-.04-.14 1.61-1.41.58.19.46Zm2.26-7.05.5.05.4-4.45-.5-.04-.5-.05-.4 4.45.5.04Zm.8-8.88.49.04.4-4.44-.5-.05-.5-.04-.4 4.44.5.05Zm.78-8.89.5.05.4-4.45-.5-.04-.5-.05-.4 4.45.5.04Z" fill="#7859CF"/></svg>