<svg viewBox="0 0 50 56" fill="none" xmlns="http://www.w3.org/2000/svg"><path fill-rule="evenodd" clip-rule="evenodd" d="M23 4h8v3h-3v3.02c3.82.16 7.39 1.26 10.5 3.06 1.85-1.93 6.26.17 4.76 3.66l-.1-.1a23 23 0 1 1-32.43.1c-2.02-3.03 2.59-6.16 4.77-3.66 3.11-1.8 6.68-2.9 10.5-3.06v-3.02h-3v-3Z" fill="#F0EBFF"/><path fill-rule="evenodd" clip-rule="evenodd" d="M26 1h-6v1h6v-1Zm-2 2h3v-3h-8v3h3v3.02a22.87 22.87 0 0 0-9.6 2.57l-.15-.17c-1.53-1.76-3.85-1.44-5.3-.4a4.14 4.14 0 0 0-1.6 2.26c-.26.96-.1 2.02.56 3.01l.12.19a23 23 0 1 0 33.99.05l.16-.4c.47-1.08.5-2.13.17-3.04-.32-.9-.95-1.6-1.68-2.06-1.41-.89-3.54-1.06-4.9.36l-.17.2a22.87 22.87 0 0 0-9.6-2.57v-3.02Zm-1 4c-3.86 0-7.49 1-10.64 2.74l-.36.2a22 22 0 1 0 22 0l-.36-.2a21.9 21.9 0 0 0-10.64-2.74Zm-11.5 2.08a23.08 23.08 0 0 0-4.76 3.66 2.98 2.98 0 0 1-.44-.98c-.55-2.31 2.31-4.31 4.35-3.34.3.15.6.37.85.66Zm23 0a23.08 23.08 0 0 1 4.76 3.66c.17-.4.26-.77.3-1.12.2-2.33-2.32-3.74-4.1-3.14-.36.12-.69.32-.96.6Zm-11.5 21.92a2 2 0 0 0 .86-3.8l-.91-.2a2 2 0 0 0 .05 4Zm-.64-4.93-1.34-4.94-.04-.14.05-.15 1.5-4.5.47-1.42.47 1.42 1.5 4.5.05.15-.04.14-1.34 4.94.37.1 7.55-13.42.88.5-7.55 13.42a3 3 0 1 1-2.53-.6Zm-.34-5.06.98 3.59.98-3.59-.98-2.93-.98 2.93Z" fill="#7859CF"/></svg>