<svg viewBox="0 0 296 42" fill="none" xmlns="http://www.w3.org/2000/svg"><path d="M129.41 21.16a.3.3 0 0 0-.06-.17h.15l-.09.17Zm-12.45 17.51c.8-6.32 5.11-14.25 12.23-17.21l.09-.06c-1.75 3.32-2.67 6.86-4.64 10.13-1.72 2.86-4.62 5.12-7.68 7.14Zm-23.42-2.25c-.62 1.03-4.13 5.53-3.82 2.89.26-2.19.98-4.32 1.78-6.41 1.67-4.32 4.79-7.95 8.93-11-1.06 1.26-1.52 2.92-2 4.3a58.01 58.01 0 0 1-4.9 10.22Zm-9.26-29.42c-2.56-2.97 2.06-1.37 4.2-.83 3.55.89 6.93 2.39 10 4 4.71 2.48 9.26 5.16 12.23 8.94-10.24-1.63-20.36-5.06-26.43-12.11Zm30.86.88a31.93 31.93 0 0 1-3.2-2.54c.22.2-3.16-3.98-3-3.93a54.74 54.74 0 0 1 17.76 8.39c3.81 2.75 6.21 6.51 9.84 9.37-5.17-1.8-9.49-4.37-14.12-6.94-2.5-1.39-4.95-2.79-7.28-4.35Zm-55.32 29.94c-2.02 1.9-2.53 1.45-2.52-.87.01-2.46 1.44-4.8 3-6.87 2.6-3.45 6.72-6.11 10.4-8.82h.12c-3.39 5.73-5.73 11.6-11 16.56Zm-20.14-11.77c-2.23 3.12-4.17 6.45-8.65 7.72.94-5.77 6.38-10.25 13.14-12.33-1.98 1.13-3.4 3.08-4.5 4.61Zm-36.67-5.86c7.46-2.04 14.59-1.83 22.08-.4l-4.22.04c-.51.01-.71.38-.61.68-5.93.7-12.13 2.28-17.25-.32Zm22.87-13.96c9.82.09 17.07 6.75 23.46 12.21-4.29-1.58-9.02-2.37-13.08-4.5-3.95-2.07-6.98-5.1-10.38-7.71Zm25.23-2.03c11.76 1.82 21.3 6.67 27.26 14.74-10.52-2.04-22.43-6.77-27.26-14.74Zm93.82 15.86-6.3-.13c.07-.14.06-.32-.11-.47-4.56-4.08-8.12-8.61-13.44-12.15-5.05-3.36-11.17-5.55-17.37-7.29-.43-.12-.96.27-.78.61 2.51 4.8 7 8.04 12.25 11.1 4.6 2.67 9.9 6.65 15.66 8.11-7.46-.15-14.93-.27-22.4-.33-1.66-3.67-6.17-6.25-10.05-8.47a54.55 54.55 0 0 0-20.17-7.03c-.47-.06-.87.21-.76.59 1.38 4.61 6.88 8 11.64 10.56a46.88 46.88 0 0 0 10.73 4.29c-8-.04-15.98-.05-23.97-.03-3.31-9.54-18.39-14.92-29.74-16.46-.46-.06-1.06.24-.85.66 3.85 7.58 14.94 13.77 25.44 15.82-7.6.03-15.22.07-22.83.13a.46.46 0 0 0-.17-.14c-.3-.15-.62-.27-.93-.4-6.86-6.47-15.02-14.66-26.85-14-.67.04-1.1.67-.57 1.08 3.6 2.72 6.8 5.9 10.84 8.24 4.34 2.52 9.46 4.08 14.65 5.25l-19.9.16c-8.77-3.63-19.44-3.55-28.46-.47-.57.2-.65.91-.2 1.22 3.31 2.2 7.44 2.46 11.65 2.38 5.06-.1 11.64-.3 16.44-1.63.19-.05.29-.18.3-.32l13.28.12c-7.03 2.02-11.93 7.5-12.27 13.4-.02.31.4.53.78.45 3.77-.76 6.15-2.75 8.14-5.27 1.17-1.49 2.13-3.07 3.3-4.56 1.39-1.77 3.07-2.69 5.22-3.79.1-.05.17-.12.2-.19l21.57.15c-7.82 4.65-15.13 11.2-12.93 19.34.1.33.66.61 1.08.48 3.91-1.25 6.23-4.6 8.26-7.3 2.98-4 4.88-8.18 6.92-12.48v-.03c9 .04 18 .06 27 .03-7.56 4.18-11.95 13.2-11.31 20.11.02.3.33.63.76.6 3.73-.33 6.07-4.88 7.26-7.13 2.25-4.26 3.46-9.9 6.94-13.6 8.37-.04 16.74-.12 25.11-.26-8.36 2.34-13.13 13.04-12.91 19.2.02.63.92.86 1.5.48 8.1-5.36 11.45-11.84 14.15-19.73 4.74-.09 9.47-.19 14.2-.31.48-.02.48-.57 0-.59Zm21.57.93h.15a.3.3 0 0 0-.06.17l-.1-.17Zm4.86 10.54c-1.97-3.27-2.9-6.81-4.64-10.13l.1.06c7.1 2.96 11.42 10.9 12.22 17.21-3.06-2.02-5.96-4.28-7.68-7.14Zm26.21-5.33c-.48-1.38-.94-3.04-2-4.3 4.14 3.05 7.26 6.68 8.93 11 .8 2.09 1.53 4.23 1.78 6.4.3 2.65-3.2-1.84-3.82-2.88a58.12 58.12 0 0 1-4.89-10.22Zm-12.28-7.1c2.97-3.77 7.52-6.45 12.23-8.92a45.5 45.5 0 0 1 10-4.01c2.14-.54 6.76-2.14 4.2.83-6.07 7.05-16.19 10.48-26.43 12.1Zm-11.7-6.87c-4.64 2.57-8.96 5.13-14.13 6.94 3.63-2.86 6.03-6.62 9.84-9.37a54.74 54.74 0 0 1 17.76-8.4c.16-.04-3.22 4.14-3 3.94a31.47 31.47 0 0 1-3.2 2.54 101.5 101.5 0 0 1-7.28 4.35Zm51.59 9.03h.11c3.7 2.7 7.81 5.37 10.41 8.82 1.56 2.06 2.99 4.4 3 6.87 0 2.32-.5 2.77-2.52.87-5.27-4.97-7.61-10.83-11-16.56Zm26.65.18c6.76 2.08 12.2 6.56 13.14 12.33-4.48-1.27-6.43-4.6-8.65-7.72-1.09-1.53-2.5-3.48-4.5-4.61Zm23.91-.93c.1-.3-.1-.67-.61-.68l-4.22-.03c7.5-1.44 14.62-1.65 22.08.39-5.12 2.6-11.32 1.02-17.25.32Zm-16-6.57c-4.06 2.13-8.8 2.92-13.08 4.5 6.39-5.46 13.64-12.12 23.47-12.21-3.41 2.6-6.44 5.64-10.4 7.71Zm-42.11 5c5.96-8.07 15.5-12.92 27.26-14.74-4.83 7.97-16.74 12.7-27.26 14.74Zm-66.56 1.7c4.73.13 9.46.23 14.2.32 2.7 7.9 6.05 14.37 14.16 19.73.57.38 1.47.15 1.49-.48.22-6.16-4.55-16.86-12.91-19.2 8.37.14 16.74.22 25.11.26 3.48 3.7 4.7 9.34 6.94 13.6 1.19 2.25 3.53 6.8 7.26 7.13a.7.7 0 0 0 .76-.6c.64-6.9-3.75-15.93-11.3-20.1 9 .02 18 0 26.99-.04v.03c2.04 4.3 3.94 8.49 6.92 12.47 2.03 2.7 4.34 6.06 8.26 7.3.43.14.99-.14 1.08-.47 2.2-8.13-5.11-14.7-12.93-19.34a7594 7594 0 0 0 21.56-.15c.04.07.1.14.2.2 2.16 1.1 3.84 2.01 5.23 3.78 1.17 1.49 2.13 3.07 3.3 4.56 1.99 2.52 4.37 4.5 8.14 5.27.37.08.8-.14.78-.46-.34-5.9-5.24-11.37-12.27-13.4l13.29-.1c0 .13.1.26.3.31 4.79 1.33 11.37 1.54 16.43 1.63 4.2.08 8.34-.17 11.65-2.38.45-.3.37-1.03-.2-1.22-9.02-3.08-19.68-3.16-28.47.47l-19.89-.16c5.2-1.17 10.31-2.73 14.65-5.25 4.03-2.34 7.25-5.52 10.84-8.24.53-.4.1-1.04-.57-1.07-11.83-.67-19.99 7.52-26.85 13.98-.31.14-.63.26-.93.4a.45.45 0 0 0-.17.15c-7.61-.06-15.22-.1-22.83-.13 10.5-2.05 21.59-8.24 25.44-15.82.21-.42-.4-.72-.85-.66-11.36 1.54-26.43 6.92-29.74 16.46-7.99-.02-15.98-.01-23.97.03a46.86 46.86 0 0 0 10.73-4.29c4.76-2.56 10.25-5.95 11.64-10.56.11-.38-.3-.65-.75-.59a54.55 54.55 0 0 0-20.18 7.03c-3.88 2.22-8.4 4.8-10.06 8.47a1945 1945 0 0 0-22.39.33c5.76-1.46 11.07-5.44 15.66-8.12 5.24-3.05 9.74-6.3 12.25-11.09.18-.34-.35-.73-.78-.6-6.2 1.73-12.32 3.92-17.37 7.28-5.32 3.54-8.88 8.07-13.44 12.15-.17.15-.18.33-.1.47l-6.3.13c-.5.02-.5.57 0 .59Z" fill="#8E9892" fill-opacity=".7"/></svg>