<svg viewBox="0 0 228 32" fill="none" xmlns="http://www.w3.org/2000/svg"><path d="M99.68 16.12a.23.23 0 0 0-.05-.13h.12l-.07.13Zm-9.59 13.34c.62-4.81 3.94-10.85 9.42-13.11l.07-.04c-1.35 2.52-2.06 5.22-3.58 7.71-1.32 2.18-3.56 3.9-5.9 5.44Zm-18.04-1.71c-.47.79-3.18 4.21-2.94 2.2.2-1.66.75-3.3 1.37-4.89 1.29-3.29 3.69-6.05 6.88-8.37-.82.96-1.17 2.22-1.55 3.27a43.98 43.98 0 0 1-3.76 7.79Zm-7.13-22.42c-1.97-2.26 1.58-1.04 3.24-.63 2.73.68 5.33 1.82 7.7 3.05 3.63 1.9 7.13 3.93 9.42 6.8-7.89-1.23-15.69-3.85-20.36-9.22Zm23.77.68c-.9-.6-1.69-1.27-2.47-1.94.17.15-2.43-3.03-2.3-3a42.43 42.43 0 0 1 13.68 6.4c2.93 2.1 4.78 4.96 7.58 7.14-3.99-1.38-7.32-3.33-10.88-5.3a78.46 78.46 0 0 1-5.6-3.3Zm-42.61 22.8c-1.56 1.46-1.95 1.11-1.94-.66 0-1.87 1.1-3.66 2.3-5.23 2-2.63 5.18-4.66 8.02-6.72h.1c-2.62 4.37-4.42 8.83-8.48 12.62Zm-15.52-8.96c-1.71 2.37-3.21 4.91-6.66 5.88.73-4.4 4.92-7.8 10.12-9.4-1.52.86-2.62 2.35-3.46 3.52Zm-28.24-4.47c5.75-1.55 11.23-1.4 17-.3l-3.24.03c-.4 0-.55.29-.47.52-4.57.53-9.35 1.73-13.3-.25Zm17.61-10.63c7.57.06 13.15 5.14 18.07 9.3-3.3-1.2-6.95-1.8-10.07-3.43-3.05-1.58-5.38-3.9-8-5.87Zm19.44-1.55c9.05 1.39 16.4 5.08 21 11.23-8.1-1.55-17.28-5.16-21-11.23Zm72.26 12.09c-1.61-.05-3.23-.07-4.85-.1.06-.11.05-.25-.08-.37-3.51-3.1-6.26-6.56-10.35-9.25-3.9-2.56-8.6-4.23-13.38-5.55-.33-.1-.74.2-.6.46 1.93 3.65 5.4 6.12 9.43 8.45 3.54 2.04 7.63 5.07 12.06 6.19-5.74-.12-11.5-.2-17.24-.26-1.29-2.79-4.77-4.76-7.75-6.45a42.33 42.33 0 0 0-15.54-5.36c-.36-.04-.67.16-.58.45 1.06 3.52 5.3 6.1 8.96 8.05a36.34 36.34 0 0 0 8.26 3.27c-6.15-.03-12.3-.04-18.46-.03-2.55-7.26-14.16-11.36-22.9-12.53-.36-.05-.82.18-.66.5 2.97 5.77 11.5 10.49 19.6 12.05-5.86.02-11.73.05-17.59.1a.35.35 0 0 0-.13-.1c-.23-.12-.48-.21-.72-.32-5.28-4.92-11.57-11.16-20.67-10.65-.52.02-.85.5-.44.81 2.76 2.08 5.24 4.5 8.34 6.29 3.34 1.91 7.29 3.1 11.28 3.99l-15.31.13c-6.77-2.77-14.99-2.71-21.93-.36-.44.14-.5.7-.16.92 2.56 1.69 5.73 1.88 8.98 1.82 3.9-.07 8.96-.23 12.66-1.24.15-.04.22-.14.23-.24l10.23.08c-5.41 1.54-9.2 5.71-9.45 10.21-.01.24.31.41.6.35 2.9-.58 4.74-2.1 6.27-4.02.9-1.13 1.64-2.34 2.54-3.47 1.07-1.35 2.37-2.05 4.02-2.89a.32.32 0 0 0 .16-.14l16.61.11c-6.02 3.54-11.65 8.54-9.95 14.74.06.25.5.46.82.36 3.02-.95 4.8-3.5 6.36-5.57 2.3-3.03 3.77-6.22 5.34-9.5v-.02c6.93.03 13.86.05 20.79.02-5.82 3.19-9.2 10.06-8.71 15.32.02.23.25.49.59.46 2.87-.25 4.67-3.72 5.59-5.43 1.73-3.25 2.67-7.54 5.34-10.37 6.45-.03 12.9-.09 19.35-.2-6.45 1.79-10.12 9.94-9.95 14.64.02.47.71.65 1.15.36 6.25-4.08 8.82-9.02 10.91-15.03 3.65-.07 7.3-.14 10.93-.24.38 0 .38-.43 0-.44Zm16.62.7h.12a.23.23 0 0 0-.05.13l-.07-.13Zm3.75 8.03c-1.52-2.5-2.23-5.19-3.58-7.71l.07.04c5.48 2.26 8.8 8.3 9.42 13.11-2.35-1.54-4.6-3.26-5.91-5.44Zm20.19-4.06c-.38-1.05-.73-2.31-1.55-3.27 3.2 2.32 5.6 5.08 6.88 8.37a20.2 20.2 0 0 1 1.37 4.89c.24 2.01-2.47-1.41-2.94-2.2a44.02 44.02 0 0 1-3.76-7.79Zm-9.47-5.4c2.29-2.88 5.8-4.92 9.42-6.8a35.27 35.27 0 0 1 7.7-3.06c1.66-.4 5.21-1.63 3.24.63-4.67 5.37-12.47 7.99-20.36 9.23Zm-9.01-5.24c-3.57 1.96-6.9 3.9-10.89 5.29 2.8-2.18 4.65-5.05 7.58-7.14 4-2.86 8.55-5 13.69-6.4.12-.03-2.49 3.15-2.3 3-.8.67-1.59 1.34-2.48 1.94a78.36 78.36 0 0 1-5.6 3.3Zm39.74 6.88h.09c2.84 2.06 6.01 4.09 8.01 6.72 1.2 1.57 2.3 3.36 2.31 5.23 0 1.77-.38 2.12-1.94.67-4.06-3.79-5.86-8.25-8.47-12.62Zm20.53.13c5.2 1.6 9.4 5 10.12 9.4-3.45-.97-4.95-3.5-6.66-5.88-.84-1.17-1.94-2.66-3.46-3.52Zm18.42-.7c.07-.23-.08-.51-.48-.52l-3.25-.03c5.78-1.1 11.26-1.25 17.01.3-3.94 1.98-8.72.78-13.28.25Zm-12.33-5c-3.12 1.61-6.77 2.21-10.07 3.42 4.92-4.16 10.5-9.24 18.07-9.3-2.62 1.98-4.95 4.29-8 5.87Zm-32.44 3.8c4.6-6.15 11.95-9.84 21-11.23-3.72 6.07-12.9 9.68-21 11.23Zm-51.26 1.3c3.64.1 7.28.17 10.93.24 2.08 6.01 4.66 10.95 10.9 15.03.45.3 1.14.11 1.16-.36.17-4.7-3.5-12.85-9.95-14.63 6.45.1 12.9.16 19.35.2 2.67 2.82 3.6 7.11 5.34 10.36.92 1.7 2.72 5.18 5.6 5.43.33.03.56-.23.58-.46.49-5.26-2.89-12.13-8.7-15.32 6.92.03 13.85.01 20.78-.02v.02c1.57 3.28 3.04 6.47 5.33 9.5 1.56 2.07 3.35 4.62 6.37 5.57.32.1.76-.11.82-.36 1.7-6.2-3.93-11.2-9.95-14.74l16.6-.11c.04.05.08.1.17.14 1.65.84 2.95 1.54 4.02 2.89.9 1.13 1.64 2.34 2.54 3.47 1.53 1.92 3.36 3.44 6.27 4.02.29.06.62-.1.6-.35-.26-4.5-4.04-8.67-9.45-10.2l10.24-.1c0 .1.08.2.22.25 3.7 1.01 8.76 1.17 12.66 1.24 3.24.06 6.42-.13 8.98-1.82.34-.23.28-.78-.16-.92-6.94-2.35-15.16-2.41-21.93.36l-15.31-.13c4-.9 7.94-2.08 11.28-4 3.1-1.78 5.58-4.2 8.34-6.28.41-.3.08-.79-.44-.81-9.1-.5-15.39 5.73-20.67 10.65-.24.1-.49.2-.72.31a.35.35 0 0 0-.13.11c-5.86-.05-11.73-.08-17.59-.1 8.1-1.56 16.63-6.28 19.6-12.05.16-.32-.3-.55-.65-.5-8.75 1.17-20.36 5.27-22.91 12.53-6.16-.01-12.31 0-18.47.03 3.08-.73 6.1-2.12 8.27-3.27 3.66-1.95 7.9-4.53 8.96-8.05.1-.29-.22-.5-.58-.45a42.32 42.32 0 0 0-15.54 5.36c-2.98 1.7-6.47 3.66-7.75 6.45-5.75.05-11.5.14-17.24.26 4.43-1.12 8.52-4.15 12.06-6.19 4.04-2.33 7.5-4.8 9.44-8.45.14-.26-.28-.55-.6-.46-4.78 1.32-9.5 3-13.39 5.55-4.1 2.7-6.84 6.15-10.35 9.25-.13.12-.14.26-.08.36l-4.85.1c-.38.02-.38.44 0 .45Z" fill="#8E9892" fill-opacity=".7"/></svg>