<svg viewBox="0 0 36 44" fill="none" xmlns="http://www.w3.org/2000/svg"><path d="M32.29 3.13c-3.09 14.4-12.55 9.49-13.84 6.96-1.28-2.53-.04-12.61 13.84-6.96v0Z" stroke="#000" stroke-width="2" stroke-miterlimit="10" stroke-linecap="round" stroke-linejoin="round"/><path d="M24.91 6.05c-2.26.86-5.15 2.26-6.44 4.08m-14.67-7c3.09 14.4 12.55 9.49 13.84 6.96 1.28-2.53.04-12.61-13.84-6.96v0Z" stroke="#000" stroke-width="2" stroke-miterlimit="10" stroke-linecap="round" stroke-linejoin="round"/><path d="M11.18 6.05c2.26.86 5.15 2.26 6.44 4.08m-11.21 3.31s-1.86 1.12-2.28 2.96c-.42 1.84 0 3.86 0 3.86s-2.92 1.2-2.92 5c0 3.78 2.46 4.86 2.46 4.86s.03 4.47 2.79 6.88a9.44 9.44 0 0 0 5.65 2.43s1.5 3.18 5.93 3.18 5.94-3.18 5.94-3.18 3-.44 5.65-2.43c2.66-1.98 2.58-6.88 2.58-6.88s2.67-1.08 2.67-4.87-2.92-5-2.92-5 .42-2 0-3.85c-.42-1.84-2.28-2.96-2.28-2.96" stroke="#000" stroke-width="2" stroke-miterlimit="10" stroke-linecap="round" stroke-linejoin="round"/><path d="M22.5 16.29s-1.88 2-4.21 2m-4.38-2s1.89 2 4.22 2m10.03 5.26a3.9 3.9 0 0 1-4 3.78m-4.16-3.78a3.9 3.9 0 0 0 4 3.78m-7.53-3.78a3.9 3.9 0 0 1-4 3.78m-4.16-3.78a3.9 3.9 0 0 0 4 3.78m9.95 6.57c-.75 1-2.28 1.69-4.04 1.69m-4.3-1.81c.71 1.07 2.3 1.81 4.13 1.81m-4.17-1.55c0 .9-.56 1.7-1.45 2.27m9.88-2.27c0 .97.66 1.85 1.69 2.41m-15.1-10.63c0 1.7-1.2 3.15-2.84 3.62m4-13.18a4.02 4.02 0 0 1-4 4.05m19.43-4.05c0 2.24 1.8 4.05 4 4.05m-1.92 5.5a3.8 3.8 0 0 0 2.63 3.56" stroke="#000" stroke-width="2" stroke-miterlimit="10" stroke-linecap="round" stroke-linejoin="round"/></svg>