<svg viewBox="0 0 38 50" fill="none" xmlns="http://www.w3.org/2000/svg"><ellipse cx="19" cy="48.5" rx="8" ry="1.5" fill="#7859CF" fill-opacity=".25"/><path d="M38 20c0 15.05-19 24-19 24s-19-8.95-19-24c0-11.05 8.5-20 19-20s19 8.95 19 20Z" fill="#7859CF"/><path fill-rule="evenodd" clip-rule="evenodd" d="M19 36c8.28 0 15-7.16 15-16s-6.72-16-15-16c-8.28 0-15 7.16-15 16s6.72 16 15 16Zm9.86-10.67c.73-1.6 1.14-3.41 1.14-5.33 0-6.63-4.92-12-11-12-.85 0-1.67.1-2.46.3 3.8 1 6.59 4.37 6.59 8.37 0 3.1-1.75 6.15-3.44 8.66h9.17Zm-14.67-14.66a6.1 6.1 0 0 1 6.19 6c0 3.8-3.02 7.46-5.44 10.4l-.75.93h13a10.6 10.6 0 0 1-8.19 4c-6.08 0-11-5.37-11-12 0-3.66 1.62-9.33 6.19-9.33Z" fill="#fff"/></svg>