<svg width="96" height="40" viewBox="0 0 96 40" fill="none" xmlns="http://www.w3.org/2000/svg">
<path d="M80.1096 18.0047C79.3449 16.9002 78.6212 15.781 77.9509 14.6174C77.0515 13.0532 75.2065 7.6136 77.7303 6.2762C77.1721 8.60464 79.6026 12.0276 80.3738 14.0492C81.3209 16.5292 82.2971 19.7291 83.7604 22.2782C82.3833 21.0764 81.2337 19.6243 80.1096 18.0047ZM84.2904 15.9067C84.5057 17.9381 84.7968 19.9658 85.1112 21.9885C84.2457 19.9054 83.1125 17.858 82.2514 15.8451C80.8723 12.6156 79.899 9.23451 78.5143 6.01365C78.5412 6.00995 78.5619 5.99886 78.5896 5.99639C82.746 5.4491 84.0054 13.2147 84.2904 15.9067ZM84.6602 36.7382C84.1774 37.7687 82.7498 37.9092 82.1609 36.8713C81.7487 36.1465 82.4162 34.9878 82.8987 34.4837C82.9698 34.4085 83.032 34.3641 83.0942 34.3173C83.2261 34.3826 83.4098 34.3456 83.4772 34.2063C83.48 34.2002 83.481 34.1953 83.4842 34.1891C83.8546 34.2384 84.1255 34.7906 84.6838 35.068C84.7757 35.1136 84.868 35.1358 84.958 35.1419C84.982 35.7003 84.8816 36.2624 84.6602 36.7382ZM75.3422 32.44C74.675 34.3567 73.8332 36.536 72.3952 37.9954C71.9212 38.4774 71.4931 38.4565 71.1157 38.2173C71.5821 35.5869 72.1997 33.4187 73.4209 30.9522C74.1493 29.478 75.0543 28.0346 75.7219 26.5123C75.8953 26.3792 76.0667 26.251 76.2387 26.1252C76.1223 28.36 76.1035 30.2484 75.3422 32.44ZM70.7853 31.7263C71.549 30.4333 72.6515 29.2006 73.8482 28.0937C73.1726 29.4188 72.538 30.7673 71.9138 32.0788C71.2019 33.5752 70.3967 35.2923 70.0938 37.002C70.0702 36.9613 70.0434 36.9194 70.0203 36.8799C69.0473 35.2109 69.9156 33.1981 70.7853 31.7263ZM55.8934 17.2355C55.0264 16.1274 54.2044 14.9983 53.4736 13.7928C52.9728 12.9681 52.7956 12.0166 52.2185 11.2573C52.1271 11.1352 51.9698 11.1648 51.8703 11.2523C51.8124 9.68812 52.0141 7.96737 52.2402 6.47589C52.4286 5.23093 52.8908 4.36686 53.4901 3.83805C54.4644 9.51062 55.9947 15.1696 58.8441 20.1593C57.7713 19.3002 56.7743 18.3597 55.8934 17.2355ZM58.9746 6.97264C59.9301 11.1833 58.0718 15.5024 59.2902 19.5344C58.2391 17.0703 57.1616 14.6211 56.2731 12.0819C55.2874 9.26902 55.2663 6.16527 54.1322 3.43006C55.9004 2.62269 58.3056 4.02296 58.9746 6.97264ZM54.2859 31.4983C54.259 30.4752 55.302 29.8317 56.1623 29.6506C57.2332 29.4225 57.2992 30.4998 57.3614 31.4095C57.3657 31.4748 57.3897 31.5377 57.426 31.5895C56.649 32.8172 54.3311 33.2387 54.2859 31.4983ZM47.1944 24.7126C45.3791 27.2235 44.426 30.236 42.1857 32.4351C41.1931 33.4101 40.2052 33.6209 39.3995 33.3534C41.1743 28.201 45.1359 24.4291 49.7677 22.0391C48.8259 22.7343 48.0033 23.5946 47.1944 24.7126ZM37.6822 29.5704C38.0167 27.9372 39.0348 26.6701 40.1674 25.5373C42.1377 23.5663 44.5066 22.6332 47.0012 21.9972C45.9463 22.7146 44.9834 23.586 44.2474 24.2319C41.6718 26.495 39.5319 29.3116 38.2947 32.5485C37.7199 31.8151 37.4452 30.7254 37.6822 29.5704ZM26.58 5.29872C26.0805 3.91694 26.4715 2.8877 27.7535 2.20976C29.2866 6.60285 31.0952 11.0847 33.646 14.9896C30.4682 12.4849 27.818 9.25053 26.58 5.29872ZM29.3191 1.65137C30.2685 1.99528 31.0901 2.54257 31.7836 3.28831C33.5805 4.97454 33.8438 7.63702 33.9763 9.9556C34.0803 11.7848 34.0144 13.5832 34.5266 15.2621C33.2451 12.8671 32.0027 10.4523 30.8239 8.00188C29.9104 6.10363 29.55 3.69015 28.2718 1.98419C28.5866 1.86093 28.9257 1.74505 29.3191 1.65137ZM11.4066 38.1828C11.3337 38.1939 11.2705 38.184 11.2022 38.1853C12.6547 33.3731 13.8264 28.5498 15.8249 23.9496C15.5064 25.0824 15.3571 26.2966 15.211 27.2777C14.828 29.8478 14.3913 32.7543 14.7173 35.3626C13.9677 36.7061 13.0882 37.9671 11.4066 38.1828ZM9.50088 32.7642C10.2406 30.1941 12.0705 28.1332 13.8584 26.0624C12.0262 29.7923 10.7301 33.8883 10.3787 37.9572C9.0387 37.0624 9.19188 33.8353 9.50088 32.7642ZM7.9561 17.9048C6.6628 17.4487 5.43548 16.7499 4.27931 16.014C3.79976 15.7058 0.180982 11.5975 1.09448 10.9306C3.42708 12.888 6.1408 14.4177 8.77589 15.887C10.8842 17.0629 13.1522 18.3954 15.4881 19.2521C12.9647 18.907 10.4512 18.7837 7.9561 17.9048ZM17.0842 19.1436C14.691 17.4919 11.8189 16.3739 9.26774 15.0266C6.8155 13.7311 4.48097 12.2076 2.06455 10.8554C7.98722 11.0748 13.9036 14.0245 17.0842 19.1436ZM21.87 30.6712C20.3355 30.6046 19.7603 29.07 20.5216 27.8768C21.3975 26.4987 22.9018 27.1976 23.976 27.8189C24.0848 28.9936 23.1642 30.7254 21.87 30.6712ZM3.67542 32.9096C3.03136 32.9404 2.80184 32.2477 2.73502 31.7066C2.65445 31.052 3.09118 30.5072 3.5905 30.1609C4.05316 29.8404 4.63643 29.6604 5.18859 29.7997C5.58298 29.8995 5.75968 30.3914 6.13803 30.5467C5.8868 31.6881 4.82917 32.8529 3.67542 32.9096ZM18.4148 6.752C19.8814 7.11069 19.6217 9.27518 19.2811 10.3389C19.0955 10.9183 18.7535 11.5445 18.2541 11.9056C17.2388 12.0991 16.2056 10.9294 15.6972 9.82986C14.7842 7.85273 16.4195 6.26634 18.4148 6.752ZM39.5846 8.40866C39.055 7.02934 39.5159 5.5625 40.9283 5.05342C42.2809 4.56284 43.1799 5.6833 43.1982 6.98373C43.2076 7.60867 43.0102 8.20034 42.6753 8.71434C42.3421 9.22589 41.7123 9.38365 41.2359 9.7066C41.1973 9.73249 41.1837 9.77317 41.1521 9.80522C40.4563 9.75468 39.9366 9.32943 39.5846 8.40866ZM67.6331 12.8757C68.5051 12.3876 69.2924 13.1592 69.5656 13.9629C69.9543 15.1031 69.3258 15.6886 68.9211 16.6599C68.9155 16.6759 68.9131 16.6907 68.9079 16.7067C66.9099 16.7782 65.3269 14.1601 67.6331 12.8757ZM95.3136 23.04C92.588 23.7697 89.8338 24.1937 87.0612 24.3848C86.8877 24.3083 86.7238 24.2245 86.557 24.1419C86.6329 21.4043 85.7476 18.6111 85.4621 15.9067C85.2417 13.8199 85.0617 11.5321 84.0954 9.64128C82.846 7.19575 80.3032 3.75671 77.2456 5.34311C73.5848 7.24382 76.1469 13.6966 77.4896 16.1311C79.0962 19.0475 81.3962 22.7885 84.5044 24.4994C81.7505 24.5512 78.9816 24.3946 76.2086 24.0877C73.1764 23.0535 71.5495 20.2086 69.9133 17.6164C71.6461 17.1887 71.7296 14.52 71.1298 13.1087C70.3355 11.2375 68.5414 10.4474 66.7078 11.2573C64.63 12.1731 64.0341 14.7407 65.2477 16.5982C65.7725 17.4019 66.6403 18.017 67.5892 18.1279C68.1654 18.1957 68.6653 18.0946 69.1166 17.8715C69.3621 19.4826 70.4622 20.8656 71.5025 22.0526C72.0579 22.6862 72.6854 23.2643 73.3776 23.7302C69.0728 23.1127 64.7671 22.1993 60.4996 21.2268C60.4813 19.2841 60.0186 17.4019 60.1363 15.426C60.2579 13.3983 60.4615 11.3879 60.4064 9.35284C60.3291 6.5634 59.3718 3.19339 56.5379 2.11608C50.4706 -0.190174 50.4796 8.14979 51.705 11.9389C51.6254 13.9715 53.9584 16.5576 54.993 17.9443C55.8392 19.0783 56.772 19.9165 57.8038 20.6043C53.9283 19.7069 50.0904 18.8022 46.3213 18.0774C45.3776 17.2096 44.5264 16.2395 43.7857 15.1819C42.8378 13.8273 42.541 12.3802 42.0712 10.9023C45.3018 10.7617 45.7117 1.90776 40.3107 3.72096C38.061 4.47533 37.4033 7.08974 38.3583 9.1433C38.8294 10.1553 40.1081 11.1907 41.1842 11.0699C41.1714 12.5133 42.0223 14.059 42.7116 15.1881C43.3075 16.1631 44.0486 17.0568 44.9013 17.8124C42.1221 17.3119 39.1761 16.9384 36.1811 16.7745C36.0521 16.6932 35.9244 16.6118 35.7967 16.5292C35.1772 12.2101 36.3225 6.42287 33.2813 2.89386C31.6776 1.03135 28.0938 -1.56702 26.0244 1.22612C23.9788 3.99214 25.8949 7.47801 27.4817 9.97162C29.2258 12.7142 31.4995 15.1265 34.2707 16.6981C31.7181 16.6389 29.1504 16.7499 26.6351 17.0765C25.6838 16.5304 24.7256 16.0016 23.7875 15.4322C22.4043 14.594 21.2161 13.5216 19.9134 12.5786C20.3153 12.0424 20.5952 11.3953 20.787 10.7642C21.5058 8.39509 20.8627 5.43925 18.1066 5.12616C16.7088 4.96715 15.1342 5.62044 14.3771 6.84074C13.645 8.0179 14.0139 9.56732 14.5897 10.7174C14.9231 11.3818 15.4292 11.9598 16.0016 12.3703C16.0073 12.4344 16.019 12.4961 16.0445 12.554C16.5133 13.6597 17.7863 14.0368 18.8133 13.529C19.0738 13.3996 19.3056 13.2332 19.5125 13.0384C20.8387 15.0562 23.1496 16.2864 25.4154 17.2515C22.8537 17.662 20.3614 18.3153 18.0138 19.2607C15.3359 12.5269 7.29371 9.67333 0.606856 9.65237C0.272887 9.65114 0.0618199 9.92232 0.0321498 10.2403C-0.617576 17.3662 8.72355 21.2169 15.1027 20.6351C11.744 22.4754 8.79941 25.0639 6.53086 28.5966C6.21944 28.2774 5.78838 28.0555 5.39025 27.952C4.01312 27.6007 2.40419 28.5178 1.62119 29.6333C0.715647 30.9239 0.867856 32.7297 1.91379 33.8945C2.89145 34.9841 4.52198 34.5552 5.51942 33.7626C6.62421 32.8837 7.25319 31.5192 7.0063 30.0931C6.99641 30.0327 6.97615 29.9809 6.94829 29.939C6.95118 29.9267 6.95215 29.9156 6.95299 29.9032C7.018 29.8774 7.08072 29.8379 7.13813 29.7837C9.2611 27.7548 11.3218 25.9872 13.4434 24.4883C10.0003 27.8546 6.65014 32.6976 8.54975 36.7776C10.8649 41.7537 15.8433 37.8328 16.1269 33.6936C16.1383 33.5395 16.0073 33.4742 15.8843 33.4865C16.1576 32.1121 16.214 30.6662 16.3545 29.298C16.535 27.5551 16.82 25.8602 17.2261 24.1592C17.4235 23.3333 17.7505 22.6073 17.9064 21.8172C20.4924 20.5328 23.2716 19.6108 26.4235 19.0734C25.4883 19.7451 24.7491 20.6166 24.0887 21.6606C23.4705 22.6393 22.6856 24.068 22.368 25.4054C22.2583 25.3943 22.1485 25.3832 22.0326 25.3857C20.9259 25.4054 20.0147 26.1462 19.4309 27.0559C18.1344 29.0737 19.2161 31.5106 21.5808 31.8385C23.5209 32.1096 24.7736 30.3384 24.9795 28.5572C25.0879 27.6192 24.7298 26.6614 24.0778 26.2855C23.9241 26.0919 23.7419 25.9305 23.5388 25.7974C23.9214 24.9814 24.1537 24.031 24.4453 23.2643C25.1331 21.461 26.0758 19.9078 27.6919 18.8749C28.2591 18.7972 28.8385 18.7356 29.4303 18.6826C35.5404 18.1415 41.7076 19.0697 47.755 20.3047C41.5055 20.7497 33.4985 26.8611 36.5778 33.0921C38.2466 36.4695 42.4142 34.3419 44.0919 32.371C47.1816 28.7446 48.0061 23.7598 52.2378 21.2637C52.9931 21.4301 53.7454 21.5966 54.4945 21.7617C56.5681 22.2178 58.6796 22.7022 60.8115 23.1829C59.401 24.5031 58.0436 26.2374 57.4764 28.1147C57.1 27.9508 56.6787 27.878 56.2896 27.878C54.3179 27.8756 52.4819 29.5877 52.6068 31.6486C52.7443 33.9179 54.8554 34.6353 56.6986 33.8279C57.4782 33.4865 58.2391 32.8603 58.5006 32.0061C58.6321 31.5772 58.5972 31.2 58.4662 30.8561C58.7371 30.2952 58.7673 29.6949 58.4559 29.0145C58.388 28.8678 58.2957 28.7421 58.1949 28.6262C58.6193 27.9877 58.9534 27.3024 59.3199 26.5961C59.9244 25.4313 60.6847 24.3428 61.529 23.3456C65.9869 24.3404 70.5404 25.2833 75.0963 25.8171C75.0657 25.8701 75.0336 25.9218 75.0029 25.9748C72.3391 27.5477 69.771 29.8022 68.6897 32.7555C67.7994 35.1863 68.2135 39.1171 71.1407 39.9245C73.4968 40.5704 75.1787 36.9046 75.8991 35.2763C77.2705 32.1762 77.8142 29.298 77.1079 26.018C79.5192 26.2337 81.9267 26.3101 84.3168 26.214C83.514 27.2666 82.9859 28.4623 82.6292 29.8071C82.4323 30.5479 82.2744 31.4477 82.3192 32.2982C82.0747 32.4178 81.8419 32.5657 81.6337 32.742C80.1869 33.9635 79.3835 36.3561 80.4729 38.0682C81.7279 40.0416 84.697 39.8506 85.7552 37.8241C86.3897 36.6075 86.2975 35.153 85.6539 34.0375C85.6049 33.2018 84.9575 32.4535 84.1708 32.1565C84.0864 32.1257 84.002 32.106 83.9167 32.085C83.9559 31.4477 83.9654 30.8055 84.0539 30.2089C84.2631 28.8111 84.7644 27.4343 85.4023 26.1733C88.8618 25.9502 92.2794 25.3277 95.6107 24.1407C96.2845 23.9016 96.0178 22.8501 95.3136 23.04Z" fill="#8E9892" fill-opacity="0.7"/>
</svg>
