<svg viewBox="0 0 76 32" fill="none" xmlns="http://www.w3.org/2000/svg"><path d="M63.42 14.4c-.6-.88-1.18-1.78-1.7-2.7-.72-1.26-2.18-5.6-.18-6.68-.45 1.86 1.48 4.6 2.09 6.22.75 1.98 1.52 4.54 2.68 6.58-1.09-.96-2-2.12-2.89-3.42Zm3.31-1.67c.17 1.62.4 3.24.65 4.86-.69-1.67-1.58-3.3-2.26-4.91-1.1-2.59-1.87-5.3-2.96-7.87l.06-.01c3.29-.44 4.28 5.77 4.51 7.93Zm.3 16.66c-.39.82-1.52.94-1.99.1-.32-.57.2-1.5.59-1.9l.15-.14c.1.06.25.03.3-.08l.01-.02c.3.04.5.48.95.7.07.04.15.06.22.06.02.45-.06.9-.24 1.28Zm-7.38-3.44c-.53 1.54-1.2 3.28-2.34 4.45-.37.38-.71.37-1.01.17.37-2.1.86-3.84 1.82-5.8.58-1.19 1.3-2.34 1.83-3.56l.4-.31c-.09 1.79-.1 3.3-.7 5.05Zm-3.61-.57c.6-1.03 1.48-2.02 2.42-2.9-.53 1.06-1.03 2.13-1.53 3.18-.56 1.2-1.2 2.57-1.44 3.94l-.06-.1c-.77-1.33-.08-2.94.6-4.12Zm-11.8-11.6a28.24 28.24 0 0 1-1.9-2.75c-.4-.66-.54-1.42-1-2.02-.07-.1-.2-.08-.28 0-.04-1.26.12-2.64.3-3.83.15-1 .51-1.69.99-2.11.77 4.54 1.98 9.07 4.23 13.06a14.2 14.2 0 0 1-2.33-2.34Zm2.45-8.2c.75 3.37-.72 6.82.25 10.05-.83-1.97-1.69-3.93-2.39-5.96-.78-2.25-.8-4.74-1.7-6.93 1.4-.64 3.3.48 3.84 2.84Zm-3.71 19.62c-.02-.82.8-1.33 1.48-1.48.85-.18.9.68.95 1.4 0 .06.02.11.05.15-.61.98-2.45 1.32-2.48-.07Zm-5.62-5.43c-1.43 2-2.19 4.42-3.96 6.18-.79.78-1.57.95-2.2.73 1.4-4.12 4.53-7.14 8.2-9.05a9.44 9.44 0 0 0-2.04 2.14Zm-7.53 3.89a6.5 6.5 0 0 1 1.97-3.23c1.56-1.58 3.43-2.32 5.4-2.83-.83.57-1.59 1.27-2.17 1.79a17.1 17.1 0 0 0-4.71 6.65 2.95 2.95 0 0 1-.49-2.38Zm-8.79-19.42c-.4-1.1-.08-1.93.93-2.47 1.22 3.51 2.65 7.1 4.67 10.22a16.2 16.2 0 0 1-5.6-7.75Zm2.17-2.92c.75.28 1.4.71 1.95 1.31 1.42 1.35 1.63 3.48 1.74 5.33.08 1.47.03 2.9.43 4.25-1.01-1.92-2-3.85-2.93-5.8-.72-1.53-1-3.46-2.02-4.82.25-.1.52-.2.83-.27Zm-14.18 29.23h-.16c1.15-3.85 2.08-7.71 3.66-11.39-.25.9-.37 1.88-.49 2.66-.3 2.06-.65 4.38-.39 6.47-.6 1.07-1.29 2.08-2.62 2.26Zm-1.5-4.34c.58-2.05 2.03-3.7 3.44-5.36a27.45 27.45 0 0 0-2.75 9.52c-1.06-.72-.94-3.3-.7-4.16Zm-1.23-11.89c-1.03-.36-2-.92-2.91-1.5-.38-.26-3.25-3.54-2.52-4.08 1.84 1.57 4 2.8 6.08 3.97 1.67.94 3.46 2 5.31 2.7-2-.28-3.99-.38-5.96-1.09Zm7.23 1c-1.9-1.33-4.17-2.22-6.2-3.3-1.93-1.04-3.78-2.25-5.7-3.34 4.7.18 9.38 2.54 11.9 6.63Zm3.78 9.22c-1.21-.06-1.67-1.28-1.06-2.24.69-1.1 1.88-.54 2.73-.04.09.93-.64 2.32-1.67 2.28Zm-14.4 1.79c-.51.02-.7-.53-.74-.96-.07-.53.28-.96.67-1.24.37-.26.83-.4 1.27-.29.31.08.45.47.75.6-.2.91-1.04 1.84-1.95 1.89Zm11.67-20.93c1.16.29.95 2.02.68 2.87a2.5 2.5 0 0 1-.8 1.25c-.81.16-1.63-.78-2.03-1.66-.73-1.58.57-2.85 2.15-2.46Zm16.76 1.33c-.42-1.1-.06-2.28 1.06-2.69 1.07-.39 1.78.5 1.8 1.55 0 .5-.15.97-.42 1.38-.26.41-.76.54-1.13.8-.04.02-.05.05-.07.07-.55-.04-.96-.38-1.24-1.11Zm22.2 3.57c.7-.39 1.32.23 1.53.87.31.91-.19 1.38-.5 2.16l-.02.04c-1.58.05-2.83-2.04-1-3.07Zm21.92 8.13c-2.16.59-4.34.93-6.54 1.08l-.4-.2c.06-2.19-.64-4.42-.86-6.58-.18-1.67-.32-3.5-1.08-5.02-1-1.95-3-4.7-5.43-3.44-2.9 1.53-.87 6.69.2 8.63 1.27 2.34 3.09 5.33 5.55 6.7-2.18.04-4.37-.08-6.57-.33-2.4-.83-3.69-3.1-4.98-5.18 1.37-.34 1.44-2.47.96-3.6-.63-1.5-2.05-2.13-3.5-1.48-1.64.73-2.12 2.78-1.16 4.27.42.64 1.1 1.13 1.86 1.22a2 2 0 0 0 1.2-.2c.2 1.29 1.07 2.4 1.9 3.34.44.5.93.97 1.48 1.34-3.4-.49-6.82-1.22-10.2-2 0-1.55-.38-3.06-.28-4.64.1-1.62.26-3.23.21-4.86-.06-2.23-.82-4.93-3.06-5.79-4.8-1.84-4.8 4.83-3.83 7.86-.06 1.63 1.79 3.7 2.6 4.8a8.93 8.93 0 0 0 2.23 2.13c-3.07-.71-6.1-1.44-9.09-2.02-.75-.7-1.42-1.47-2-2.31-.76-1.09-1-2.25-1.36-3.43 2.55-.11 2.88-7.2-1.4-5.74-1.78.6-2.3 2.7-1.54 4.33.37.81 1.38 1.64 2.23 1.55 0 1.15.67 2.39 1.21 3.29.48.78 1.06 1.5 1.74 2.1-2.2-.4-4.54-.7-6.9-.83l-.31-.2c-.5-3.45.42-8.08-2-10.9-1.26-1.5-4.1-3.57-5.74-1.34-1.62 2.21-.1 5 1.16 7a15.81 15.81 0 0 0 5.37 5.38c-2.02-.05-4.05.04-6.04.3-.76-.44-1.52-.86-2.26-1.31-1.1-.67-2.03-1.53-3.07-2.29.32-.43.54-.94.7-1.45.57-1.9.06-4.26-2.13-4.5a3.12 3.12 0 0 0-2.95 1.36c-.58.94-.29 2.18.17 3.1.26.54.66 1 1.12 1.33 0 .05.01.1.03.14a1.58 1.58 0 0 0 2.2.78c.2-.1.38-.23.55-.39 1.05 1.62 2.88 2.6 4.67 3.37-2.03.33-4 .85-5.86 1.6-2.12-5.38-8.49-7.66-13.78-7.68-.26 0-.43.22-.45.47-.52 5.7 6.88 8.78 11.93 8.32a18.58 18.58 0 0 0-6.79 6.37 2 2 0 0 0-.9-.52c-1.1-.28-2.37.45-2.99 1.35a2.8 2.8 0 0 0 .24 3.4c.77.88 2.06.53 2.85-.1a3.1 3.1 0 0 0 1.18-2.94.31.31 0 0 0-.05-.12v-.03c.06-.02.1-.05.15-.1a44.31 44.31 0 0 1 5-4.23c-2.73 2.7-5.39 6.57-3.88 9.83 1.83 3.98 5.77.85 6-2.47 0-.12-.1-.17-.2-.16.22-1.1.27-2.26.38-3.35.14-1.4.37-2.75.69-4.11.15-.66.41-1.24.54-1.88a23.83 23.83 0 0 1 6.74-2.2 7.18 7.18 0 0 0-1.85 2.08 10.6 10.6 0 0 0-1.36 3l-.27-.02c-.87.01-1.6.6-2.06 1.33-1.02 1.62-.17 3.57 1.7 3.83 1.54.22 2.53-1.2 2.7-2.62.08-.75-.2-1.52-.72-1.82a1.8 1.8 0 0 0-.43-.4c.3-.64.5-1.4.72-2.02a6.78 6.78 0 0 1 2.57-3.51c.45-.06.91-.11 1.38-.15 4.84-.44 9.72.3 14.5 1.3-4.94.35-11.28 5.24-8.84 10.22 1.32 2.7 4.62 1 5.95-.57 2.44-2.9 3.1-6.9 6.44-8.89l1.8.4c1.63.36 3.3.75 5 1.14a9.51 9.51 0 0 0-2.65 3.94 2.4 2.4 0 0 0-.94-.19 2.94 2.94 0 0 0-2.91 3.02c.1 1.81 1.78 2.39 3.24 1.74a2.5 2.5 0 0 0 1.42-1.46c.1-.34.08-.64-.02-.92a1.65 1.65 0 0 0-.22-1.78c.34-.51.6-1.06.9-1.62.47-.94 1.07-1.8 1.74-2.6 3.53.8 7.13 1.55 10.74 1.97l-.07.13c-2.11 1.26-4.14 3.06-5 5.42-.7 1.95-.38 5.1 1.94 5.74 1.86.52 3.2-2.42 3.77-3.72 1.08-2.48 1.51-4.78.95-7.4 1.91.17 3.82.23 5.71.15a8.07 8.07 0 0 0-1.34 2.88 6.7 6.7 0 0 0-.24 1.99c-.2.1-.38.21-.54.35-1.15.98-1.78 2.9-.92 4.26a2.42 2.42 0 0 0 4.18-.2 3.2 3.2 0 0 0-.08-3.02 1.8 1.8 0 0 0-1.17-1.5l-.2-.06c.03-.51.03-1.03.1-1.5.17-1.12.57-2.22 1.07-3.23 2.74-.18 5.44-.68 8.08-1.63.54-.19.32-1.03-.23-.88Z" fill="#8E9892" fill-opacity=".7"/></svg>