<svg width="22" height="22" viewBox="0 0 22 22" fill="none" xmlns="http://www.w3.org/2000/svg">
<path d="M11 -3.24249e-05C4.92488 -3.24249e-05 0 4.92484 0 10.9999C0 15.6601 2.8994 19.6438 6.99129 21.2466C6.89517 20.3763 6.80825 19.0378 7.02943 18.0877C7.22934 17.2292 8.31931 12.62 8.31931 12.62C8.31931 12.62 7.99028 11.961 7.99028 10.9868C7.99028 9.4573 8.87682 8.3154 9.98068 8.3154C10.9192 8.3154 11.3724 9.01998 11.3724 9.86487C11.3724 10.8087 10.7716 12.2197 10.4615 13.5274C10.2023 14.6222 11.0105 15.5151 12.0904 15.5151C14.0454 15.5151 15.5483 13.4536 15.5483 10.4779C15.5483 7.84417 13.6558 6.00273 10.9535 6.00273C7.82365 6.00273 5.98653 8.35029 5.98653 10.7764C5.98653 11.7218 6.35073 12.7356 6.80518 13.2867C6.89508 13.3956 6.90824 13.491 6.88146 13.6022C6.79797 13.9496 6.6124 14.6968 6.57597 14.8497C6.528 15.0511 6.41655 15.0938 6.20808 14.9968C4.83426 14.3573 3.9753 12.3487 3.9753 10.7354C3.9753 7.26546 6.49644 4.07878 11.2434 4.07878C15.0593 4.07878 18.0247 6.79794 18.0247 10.4319C18.0247 14.2229 15.6344 17.2738 12.3167 17.2738C11.202 17.2738 10.1542 16.6948 9.79547 16.0107C9.79547 16.0107 9.2439 18.111 9.11018 18.6256C8.86186 19.5811 8.19145 20.7787 7.74303 21.5094C8.77223 21.828 9.86598 21.9999 11 21.9999C17.0751 21.9999 22 17.075 22 10.9999C22 4.92484 17.0751 -3.24249e-05 11 -3.24249e-05Z" fill="#BDBDBD"/>
</svg>
