<svg viewBox="0 0 16 20" fill="none" xmlns="http://www.w3.org/2000/svg"><path d="m4.56.5-.86.26a4.2 4.2 0 0 0-2.94 3.43c-.36 2.48.44 5.38 2.36 8.7 1.92 3.33 4.02 5.47 6.35 6.4a4.2 4.2 0 0 0 4.45-.84l.66-.62a2.4 2.4 0 0 0 .3-3.15l-1.64-2.25a1.8 1.8 0 0 0-1.98-.67l-2.46.75-.07.01c-.27.04-.9-.54-1.67-1.9-.82-1.4-.99-2.24-.76-2.45l1.25-1.17a3 3 0 0 0 .69-3.42l-.8-1.76a2.4 2.4 0 0 0-2.88-1.32Zm1.79 1.81.8 1.77a1.8 1.8 0 0 1-.42 2.05l-1.26 1.17c-.8.76-.53 2.06.55 3.93 1.01 1.75 1.94 2.62 2.94 2.47l.14-.03 2.51-.76a.6.6 0 0 1 .66.22l1.63 2.25a1.2 1.2 0 0 1-.15 1.58l-.65.62a3 3 0 0 1-3.18.6c-2.04-.82-3.97-2.77-5.76-5.88-1.8-3.11-2.53-5.76-2.21-7.94a3 3 0 0 1 2.1-2.45l.86-.26a1.2 1.2 0 0 1 1.44.66Z" fill="#000"/></svg>