<svg viewBox="0 0 40 40" fill="none" xmlns="http://www.w3.org/2000/svg"><circle cx="20" cy="20" r="19.5" stroke="#0F805D"/><path d="M28.95 9.77a1.55 1.55 0 0 0-1.58-.25l-17.91 7.23a1.54 1.54 0 0 0 .07 2.89l3.87 1.34 2.1 6.93.02.03a.49.49 0 0 0 .32.3l.02.01h.01c.08.02.16.01.24-.01h.02a.5.5 0 0 0 .2-.13l.01-.01 3.02-3.33 4.4 3.4c.26.22.59.33.93.33.73 0 1.37-.51 1.52-1.23l3.26-16.02a1.53 1.53 0 0 0-.52-1.49Zm-12.36 12.53-.7 3.43-1.48-4.88 7.31-3.8-5 5a.5.5 0 0 0-.13.25Zm8.64 4.77a.54.54 0 0 1-.35.4.53.53 0 0 1-.51-.08l-4.77-3.7a.5.5 0 0 0-.67.07l-2.1 2.31.7-3.43 7.2-7.19a.5.5 0 0 0-.59-.8l-10.36 5.4-3.92-1.36a.53.53 0 0 1-.36-.49.53.53 0 0 1 .33-.52l17.92-7.23a.54.54 0 0 1 .56.09.52.52 0 0 1 .18.51l-3.26 16.02Z" fill="#0F805D"/></svg>