<svg viewBox="0 0 40 40" fill="none" xmlns="http://www.w3.org/2000/svg"><circle cx="20" cy="20" r="19.5" stroke="#0F805D"/><path d="M9 15.93c0-.7.44-1.09 1.32-1.14l3.38.02c.22 0 .38.1.45.3.35 1.04.74 1.94 1.17 2.69.43.75 1 1.62 1.69 2.6a.3.3 0 0 0 .3.19c.1 0 .18-.05.24-.15l.07-.23.03-3.58c0-.25-.07-.41-.2-.5a1.85 1.85 0 0 0-.71-.18c-.27-.04-.41-.2-.41-.46 0-.05 0-.1.02-.12.32-.9 1.23-1.35 2.72-1.35l1.28-.02c.57 0 1.05.13 1.42.4.38.26.57.67.57 1.24v4.7c.1.07.2.1.3.1.22 0 .42-.12.59-.37 1.66-2.13 2.56-3.55 2.7-4.27l.04-.1c.1-.2.28-.39.52-.54.25-.15.46-.26.64-.31a.49.49 0 0 1 .2-.04h3.52l.23.02c.3 0 .54.13.7.4.06.07.1.16.13.26a1.92 1.92 0 0 1 .05.46v.14a4.8 4.8 0 0 1-.8 1.81c-.43.65-.98 1.34-1.65 2.09a22.9 22.9 0 0 0-1.25 1.47c-.13.16-.2.31-.2.45 0 .11.06.24.18.37l3.31 3.81c.19.23.28.47.28.73 0 .32-.14.58-.41.79-.27.2-.6.32-.98.35l-.38.02h-3.45l-.1.01a.76.76 0 0 1-.08.01 1.3 1.3 0 0 1-.93-.4c-.11-.1-.82-.92-2.14-2.44a1.2 1.2 0 0 0-.31-.27 30.76 30.76 0 0 0-.46 1.85l-.07.35a1.2 1.2 0 0 1-.95.87l-.32.02h-2.22c-1.26 0-2.5-.53-3.76-1.57a16 16 0 0 1-3.37-4.07c-1-1.67-1.92-3.6-2.79-5.81a1.53 1.53 0 0 1-.11-.6Zm13.64 5.36c-.32 0-.6-.08-.87-.24a.73.73 0 0 1-.38-.65v-4.76c0-.28-.08-.48-.23-.6-.15-.11-.41-.17-.8-.17l-1.29.04c-.65 0-1.14.1-1.47.31.67.3 1 .76 1 1.41v3.65c-.03.34-.18.63-.46.85-.27.23-.57.35-.9.35-.46 0-.8-.2-1.05-.6a21.34 21.34 0 0 1-2.63-4.64l-.2-.54-3.02-.02c-.2 0-.3 0-.33.03-.02.02-.03.08-.03.17 0 .13.01.26.04.4l.48 1.16c1.27 3 2.65 5.35 4.14 7.08 1.49 1.73 2.95 2.59 4.39 2.59h2.27c.09 0 .16-.02.2-.07a.62.62 0 0 0 .12-.28l.04-.21.43-1.82c.12-.25.23-.42.32-.5a.85.85 0 0 1 .59-.23c.36 0 .73.2 1.11.6l1.93 2.24c.12.18.25.27.39.27h3.74c.45 0 .68-.1.68-.31a.37.37 0 0 0-.07-.2l-3.29-3.76a1.4 1.4 0 0 1-.38-.93c0-.33.12-.65.36-.95.2-.28.58-.74 1.15-1.38.56-.64 1.06-1.24 1.48-1.8a5 5 0 0 0 .84-1.52l.07-.27a.3.3 0 0 1-.02-.14.33.33 0 0 0-.03-.15h-3.56c-.22.08-.4.2-.54.37l-.14.4c-.38.95-1.37 2.42-2.97 4.4-.32.28-.69.42-1.11.42Z" fill="#0F805D"/></svg>