<svg viewBox="0 0 40 40" fill="none" xmlns="http://www.w3.org/2000/svg"><circle cx="20" cy="20" r="19.5" stroke="currentColor"/><path d="m23.2 19.7-4.5-3a.38.38 0 0 0-.57.3v6a.37.37 0 0 0 .2.33c.05.03.1.04.17.05.07 0 .15-.03.2-.07l4.5-3a.37.37 0 0 0 0-.62Zm-4.32 2.6v-4.6l3.45 2.3-3.45 2.3Zm10.73-7.66a1.91 1.91 0 0 0-1.13-1.28c-3.17-1.22-8.26-1.2-8.48-1.2-.22 0-5.3-.02-8.47 1.2a1.91 1.91 0 0 0-1.14 1.28c-.23.9-.52 2.58-.52 5.36 0 2.78.29 4.45.52 5.36a1.91 1.91 0 0 0 1.13 1.28c3.17 1.22 8.26 1.2 8.48 1.2h.07c.64 0 5.4-.04 8.4-1.2a1.91 1.91 0 0 0 1.14-1.28c.23-.9.52-2.58.52-5.36 0-2.78-.29-4.45-.52-5.36Zm-.73 10.54a1.12 1.12 0 0 1-.68.75c-3.03 1.18-8.14 1.16-8.2 1.16-.06 0-5.17.02-8.2-1.16a1.12 1.12 0 0 1-.68-.75c-.22-.88-.5-2.48-.5-5.18 0-2.7.28-4.3.5-5.17a1.12 1.12 0 0 1 .68-.76c3.03-1.18 8.14-1.16 8.2-1.16.06 0 5.17-.02 8.2 1.16a1.13 1.13 0 0 1 .68.76c.22.87.5 2.47.5 5.17 0 2.7-.28 4.3-.5 5.18Z" fill="currentColor"/></svg>