<svg width="16" height="16" viewBox="0 0 16 16" fill="none" xmlns="http://www.w3.org/2000/svg">
<path fill-rule="evenodd" clip-rule="evenodd" d="M10.6667 4C10.6667 5.47276 9.47276 6.66667 8 6.66667C6.52724 6.66667 5.33333 5.47276 5.33333 4C5.33333 2.52724 6.52724 1.33333 8 1.33333C9.47276 1.33333 10.6667 2.52724 10.6667 4ZM12 4C12 6.20914 10.2091 8 8 8C5.79086 8 4 6.20914 4 4C4 1.79086 5.79086 0 8 0C10.2091 0 12 1.79086 12 4ZM3.19673 12.3102C4.43611 11.2774 6.1613 10.6667 8 10.6667C9.8387 10.6667 11.5639 11.2774 12.8033 12.3102C14.0354 13.337 14.6667 14.6719 14.6667 16H16C16 14.2321 15.1573 12.5363 13.6569 11.286C12.1566 10.0357 10.1218 9.33333 8 9.33333C5.87821 9.33333 3.8434 10.0357 2.34315 11.286C0.842686 12.5363 0 14.2321 0 16L1.33333 16C1.33333 14.6719 1.96465 13.337 3.19673 12.3102Z" fill="#333333"/>
</svg>
