<svg xmlns="http://www.w3.org/2000/svg" width="46" height="56" fill="none" viewBox="0 0 46 56"><path fill="#F0EBFF" fill-rule="evenodd" d="M38.7 22.12C39.49 15.56 40.2 9.35 46 4 19.5 4 11.85 12.13 8 18c-8.54 13.04-.91 25.67.71 28.09A808.17 808.17 0 0 0 4 55.56l.88.44c.64-1.27 1.3-2.6 1.98-4l2.65-5.32c2.6.87 14.45 4.19 21.99-4.68 5.66-6.66 6.45-13.44 7.2-19.88Z" clip-rule="evenodd"/><path fill="#7859CF" fill-rule="evenodd" d="M5.23 41.05C9.2 33.26 13.7 25.1 18.27 20l.73.66c-4.57 5.08-9.07 13.3-13.03 21.12A26.2 26.2 0 0 0 13.09 43c4.38.12 9.66-.96 13.65-5.65 5.46-6.42 6.22-12.94 6.98-19.4l.02-.13c.68-5.81 1.38-11.64 5.87-16.8-11.79.23-19.48 2.16-24.67 4.68a23.8 23.8 0 0 0-10.1 8.85A22.6 22.6 0 0 0 1.9 33.43a28.93 28.93 0 0 0 3.33 7.63Zm-.52 1.04C3.1 39.67-4.54 27.04 4 14 7.78 8.24 15.23.3 40.55 0H42a22 22 0 0 0-1.02 1c-4.87 5.12-5.55 10.96-6.27 17.12-.76 6.44-1.55 13.22-7.21 19.88-7.54 8.87-19.4 5.55-21.99 4.68L2.86 48c-.68 1.4-1.34 2.73-1.98 4L0 51.56l1.97-3.96 2.74-5.51Z" clip-rule="evenodd"/></svg>