<svg xmlns="http://www.w3.org/2000/svg" width="20" height="20" fill="none" viewBox="0 0 20 20"><path fill="#BDBDBD" fill-rule="evenodd" d="M1.4 1.4C0 2.812 0 5.074 0 9.6V10.5136C-.0001 14.97-.0001 17.2117 1.4 18.6 2.812 20 5.074 20 9.6 20h.9131c4.4567.0001 6.6986.0001 8.0869-1.4 1.4-1.412 1.4-3.674 1.4-8.2v-.9131c.0001-4.4568.0001-6.6986-1.4-8.0869C17.188 0 14.926 0 10.4 0H9.4864C5.03-.0001 2.7882-.0001 1.4 1.4Zm8.6194 8.7972c1.6682 0 3.0283-1.36 3.0283-3.0283 0-1.6683-1.3601-3.0283-3.0283-3.0283-1.6864 0-3.0464 1.36-3.0464 3.0283 0 1.6683 1.36 3.0283 3.0464 3.0283Zm0-4.2795c.689 0 1.2512.5621 1.2512 1.2512 0 .689-.5622 1.2512-1.2512 1.2512-.6891 0-1.2512-.5621-1.2512-1.2512-.0182-.689.544-1.2512 1.2512-1.2512Zm1.2149 6.7638c.6166-.1451 1.215-.3808 1.759-.7254.417-.2538.5439-.816.272-1.233-.2539-.4171-.816-.544-1.2331-.272-1.2331.7797-2.847.7797-4.08 0-.4171-.2539-.9611-.1451-1.2331.272-.2357.417-.1088.961.3083 1.2149.544.3445 1.1424.5803 1.7589.7254l-1.6864 1.6864c-.3445.3445-.3445.9067 0 1.2512.1813.1813.399.2538.6347.2538.2357 0 .4533-.0907.6346-.2538l1.6683-1.6683 1.6683 1.6683c.3445.3445.9066.3445 1.2512 0 .3445-.3445.3445-.9067 0-1.2512l-1.7227-1.6683Z" clip-rule="evenodd"/></svg>