<svg xmlns="http://www.w3.org/2000/svg">
    <symbol id="logo-mobile" viewBox="0 0 32 36">
      <path fill="#7859CF" fill-rule="evenodd"
        d="M32 18c0 2.87-.6 5.59-1.66 8H17c2.46-3.77 5-8.34 5-13A13 13 0 0 0 12.42.45C13.57.15 14.77 0 16 0c8.84 0 16 8.06 16 18Zm-14-5a9 9 0 0 0-9-9c-6.65 0-9 8.5-9 14 0 9.94 7.16 18 16 18 4.74 0 9-2.32 11.93-6H9l1.1-1.39C13.62 24.21 18 18.7 18 13Z"
        clip-rule="evenodd" />
    </symbol>
    <symbol id="logo-tablet" viewBox="0 0 82 36">
      <path fill="#333"
        d="M74.08 26.34c-1.33 0-2.56-.21-3.7-.63a8.82 8.82 0 0 1-2.95-1.82 8.56 8.56 0 0 1-2.61-6.29 8.62 8.62 0 0 1 2.64-6.29 8.52 8.52 0 0 1 2.95-1.8c1.15-.43 2.4-.65 3.77-.65 1.58 0 3 .27 4.24.8a7.94 7.94 0 0 1 3.1 2.28l-3.02 2.73a5.83 5.83 0 0 0-1.88-1.39 5.52 5.52 0 0 0-4.18-.14 4.5 4.5 0 0 0-2.5 2.5 5.4 5.4 0 0 0-.32 1.96 4.77 4.77 0 0 0 1.32 3.48 4.56 4.56 0 0 0 3.43 1.32c.7 0 1.39-.11 2.06-.34a7 7 0 0 0 2.04-1.2l2.67 3.34a10.9 10.9 0 0 1-3.34 1.58c-1.26.37-2.5.56-3.72.56Zm2.86-2.76v-6.34h4.2v6.96l-4.2-.62Z" />
      <path fill="#7859CF" fill-rule="evenodd"
        d="M58 18c0 2.87-.6 5.59-1.66 8H43c2.46-3.77 5-8.34 5-13A13 13 0 0 0 38.42.45C39.57.15 40.77 0 42 0c8.84 0 16 8.06 16 18Zm-14-5a9 9 0 0 0-9-9c-6.65 0-9 8.5-9 14 0 9.94 7.16 18 16 18 4.74 0 9-2.32 11.93-6H35l1.1-1.39C39.62 24.21 44 18.7 44 13Z"
        clip-rule="evenodd" />
      <path fill="#333"
        d="M1.85 26V9.2H9.8c1.85 0 3.48.34 4.9 1.03 1.4.69 2.5 1.66 3.28 2.9a8.1 8.1 0 0 1 1.2 4.47c0 1.71-.4 3.2-1.2 4.46a7.86 7.86 0 0 1-3.29 2.9c-1.4.7-3.04 1.04-4.9 1.04H1.86Zm4.75-3.8h3c.96 0 1.8-.17 2.5-.52.72-.37 1.28-.9 1.68-1.58.4-.7.6-1.54.6-2.5 0-.98-.2-1.8-.6-2.5-.4-.68-.96-1.2-1.68-1.56A5.32 5.32 0 0 0 9.6 13h-3v9.22Z" />
    </symbol>
    <symbol id="logo-desktop" viewBox="0 0 170 36">
      <path fill="#333"
        d="M140.08 26.34c-1.33 0-2.56-.21-3.7-.63a8.82 8.82 0 0 1-2.95-1.82 8.56 8.56 0 0 1-2.61-6.29 8.62 8.62 0 0 1 2.64-6.29 8.52 8.52 0 0 1 2.95-1.8c1.15-.43 2.4-.65 3.77-.65 1.58 0 3 .27 4.24.8a7.94 7.94 0 0 1 3.1 2.28l-3.02 2.73a5.83 5.83 0 0 0-1.88-1.39 5.52 5.52 0 0 0-4.18-.14 4.5 4.5 0 0 0-2.5 2.5 5.4 5.4 0 0 0-.32 1.96 4.77 4.77 0 0 0 1.32 3.48 4.56 4.56 0 0 0 3.43 1.32c.7 0 1.39-.11 2.06-.34a7 7 0 0 0 2.04-1.2l2.67 3.34a10.9 10.9 0 0 1-3.34 1.58c-1.26.37-2.5.56-3.72.56Zm2.86-2.76v-6.34h4.2v6.96l-4.2-.62Zm16.16 2.76c-1.34 0-2.58-.22-3.72-.65a9.1 9.1 0 0 1-2.97-1.83 8.56 8.56 0 0 1-2.64-6.26 8.39 8.39 0 0 1 2.64-6.24 8.9 8.9 0 0 1 2.97-1.85c1.14-.43 2.38-.65 3.72-.65 1.36 0 2.6.22 3.72.65a8.63 8.63 0 0 1 0 16.18c-1.12.43-2.36.65-3.72.65Zm0-3.94c.64 0 1.23-.11 1.78-.34a4.06 4.06 0 0 0 1.44-.96 5.2 5.2 0 0 0 1.32-3.5 5.08 5.08 0 0 0-1.32-3.48c-.4-.43-.88-.76-1.44-.98a4.8 4.8 0 0 0-3.58 0 4.2 4.2 0 0 0-1.44.98 4.7 4.7 0 0 0-1.3 3.48 5 5 0 0 0 1.3 3.5 4.37 4.37 0 0 0 3.24 1.3Z" />
      <path fill="#7859CF" fill-rule="evenodd"
        d="M124 18c0 2.87-.6 5.59-1.66 8H109c2.46-3.77 5-8.34 5-13A13 13 0 0 0 104.42.45C105.57.15 106.77 0 108 0c8.84 0 16 8.06 16 18Zm-14-5a9 9 0 0 0-9-9c-6.65 0-9 8.5-9 14 0 9.94 7.16 18 16 18 4.74 0 9-2.32 11.93-6H101l1.1-1.39c3.52-4.4 7.9-9.91 7.9-15.61Z"
        clip-rule="evenodd" />
      <path fill="#333"
        d="M2.65 26V9.2h7.94c1.86 0 3.5.34 4.9 1.03 1.4.69 2.5 1.66 3.29 2.9a8.1 8.1 0 0 1 1.2 4.47c0 1.71-.4 3.2-1.2 4.46a7.86 7.86 0 0 1-3.29 2.9c-1.4.7-3.04 1.04-4.9 1.04H2.65Zm4.75-3.8h3c.96 0 1.8-.17 2.5-.52.72-.37 1.28-.9 1.68-1.58.4-.7.6-1.54.6-2.5 0-.98-.2-1.8-.6-2.5-.4-.68-.96-1.2-1.68-1.56a5.32 5.32 0 0 0-2.5-.55h-3v9.22ZM22.96 26V9.2h7.68c1.53 0 2.85.25 3.96.74a5.77 5.77 0 0 1 2.6 2.16c.6.93.9 2.04.9 3.32 0 1.26-.3 2.36-.9 3.28a5.89 5.89 0 0 1-2.6 2.12 9.9 9.9 0 0 1-3.96.72H25.6l2.11-2V26h-4.75Zm10.4 0-4.19-6.12h5.07l4.2 6.12h-5.09Zm-5.65-5.95-2.11-2.19h4.75c1 0 1.73-.21 2.2-.64.5-.44.75-1.04.75-1.8 0-.79-.25-1.4-.74-1.83-.48-.43-1.22-.65-2.2-.65H25.6l2.11-2.18v9.29ZM41.21 26V9.2h4.75V26H41.2Zm8.6 0V9.2h3.92l9.26 11.18h-1.84V9.2h4.65V26H61.9l-9.26-11.18h1.84V26h-4.65Zm24.07-3.72-.26-5.33 7.22-7.75h5.23l-7.2 7.8-2.64 2.76-2.35 2.52ZM69.63 26V9.2h4.7V26h-4.7Zm11.28 0-5.47-6.94 3.1-3.3L86.44 26H80.9Z" />
    </symbol>
    <symbol id="nav-basket" width="16" height="16" fill="none" viewBox="0 0 16 16">
      <path fill="#333" fill-rule="evenodd" d="m5.66 3.875.234 2.792h4.213l.232-2.792a2.347 2.347 0 1 0-4.678 0Zm5.784 2.792.224-2.68a3.68 3.68 0 1 0-7.336 0l.224 2.68H0L.19 8l.816 5.71A2.667 2.667 0 0 0 3.646 16h8.708a2.667 2.667 0 0 0 2.64-2.29L15.81 8 16 6.667h-4.556ZM11.334 8h-.054l-.222 2.667h3.024L14.462 8h-3.129ZM9.941 8H6.058l.222 2.667h3.44L9.942 8ZM4.72 8H1.537l.381 2.667h3.024L4.72 8Zm1.893 6.667L6.391 12H9.61l-.222 2.667H6.613ZM10.947 12l-.222 2.667h1.629c.663 0 1.226-.488 1.32-1.145L13.89 12h-2.944Zm-5.894 0 .222 2.667H3.646a1.333 1.333 0 0 1-1.32-1.145L2.11 12h2.944Z" clip-rule="evenodd"/>
    </symbol>
    <symbol id="nav-burger" width="16" height="16" fill="none" viewBox="0 0 16 16">
      <path fill="#333" fill-rule="evenodd" d="M0 2h16v1.5H0V2Zm0 5.25h16v1.5H0v-1.5Zm16 5.25H0V14h16v-1.5Z" clip-rule="evenodd"/>
    </symbol>
    <symbol id="nav-user" width="16" height="16" fill="none" viewBox="0 0 16 16">
      <path fill="#333" fill-rule="evenodd" d="M10.67 4a2.67 2.67 0 1 1-5.34 0 2.67 2.67 0 0 1 5.34 0ZM12 4a4 4 0 1 1-8 0 4 4 0 0 1 8 0Zm-8.8 8.31A7.55 7.55 0 0 1 8 10.67c1.84 0 3.56.6 4.8 1.64A4.83 4.83 0 0 1 14.67 16H16c0-1.77-.84-3.46-2.34-4.71A8.88 8.88 0 0 0 8 9.33c-2.12 0-4.16.7-5.66 1.96A6.16 6.16 0 0 0 0 16h1.33c0-1.33.63-2.66 1.87-3.69Z" clip-rule="evenodd"/>
    </symbol>
    <symbol id="advantages-speed" width="50" height="56" fill="none" viewBox="0 0 50 56">
      <path fill="#F0EBFF" fill-rule="evenodd" d="M23 4h8v3h-3v3.02c3.82.16 7.39 1.26 10.5 3.06 1.85-1.93 6.26.17 4.76 3.66l-.1-.1a23 23 0 1 1-32.43.1c-2.02-3.03 2.59-6.16 4.77-3.66 3.11-1.8 6.68-2.9 10.5-3.06V7h-3V4Z" clip-rule="evenodd"/>
      <path fill="#7859CF" fill-rule="evenodd" d="M26 1h-6v1h6V1Zm-2 2h3V0h-8v3h3v3.02a22.87 22.87 0 0 0-9.6 2.57l-.15-.17c-1.53-1.76-3.85-1.44-5.3-.4a4.14 4.14 0 0 0-1.6 2.26c-.26.96-.1 2.02.56 3.01l.12.19a23 23 0 1 0 33.99.05l.16-.4c.47-1.08.5-2.13.17-3.04-.32-.9-.95-1.6-1.68-2.06-1.41-.89-3.54-1.06-4.9.36l-.17.2A22.87 22.87 0 0 0 24 6.01V3Zm-1 4c-3.86 0-7.49 1-10.64 2.74l-.36.2a22 22 0 1 0 22 0l-.36-.2A21.9 21.9 0 0 0 23 7ZM11.5 9.08a23.08 23.08 0 0 0-4.76 3.66 2.98 2.98 0 0 1-.44-.98c-.55-2.31 2.31-4.31 4.35-3.34.3.15.6.37.85.66Zm23 0a23.08 23.08 0 0 1 4.76 3.66c.17-.4.26-.77.3-1.12.2-2.33-2.32-3.74-4.1-3.14-.36.12-.69.32-.96.6ZM23 31a2 2 0 0 0 .86-3.8l-.91-.2a2 2 0 0 0 .05 4Zm-.64-4.93-1.34-4.94-.04-.14.05-.15 1.5-4.5.47-1.42.47 1.42 1.5 4.5.05.15-.04.14-1.34 4.94.37.1 7.55-13.42.88.5-7.55 13.42a3 3 0 1 1-2.53-.6ZM22.02 21 23 24.6l.98-3.59-.98-2.93-.98 2.93Z" clip-rule="evenodd"/>
    </symbol>
    <symbol id="advantages-comfy" fill="none" viewBox="0 0 52 56" width="52" height="56">
      <path fill="#F0EBFF" d="M4 4h48l-4 44-20 8-20-8L4 4Z"/>
      <path fill="#7859CF" fill-rule="evenodd" d="M1 0H0l.1 1L4 44l20 8 20-8 3.9-43 .1-1H1Zm.1 1 .36 4H46.54l.37-4H1.1Zm40.8 5H6.1l.1 1.13-.5.05-.5.04L5.09 6H1.55l3.39 37.3L24 50.92l19.06-7.62L46.45 6h-3.54l-.1 1.22-.5-.04-.5-.05.1-1.13ZM6.1 11.62l-.5.04.39 4.45.5-.05.5-.04-.4-4.45-.5.05Zm.78 8.88-.5.05.4 4.44.5-.04.5-.05-.4-4.44-.5.04Zm.8 8.89-.5.04.4 4.45.5-.05.49-.04-.4-4.45-.5.05Zm.79 8.88-.5.05.2 2.22 1.98.8.18-.46.2-.46-1.42-.58-.15-1.61-.5.04Zm5.82 4.23-.19.46 3.96 1.62.2-.47.18-.46-3.96-1.61-.19.46Zm7.92 3.23-.19.46L24 47l1.98-.8-.19-.47-.19-.46-1.6.65-1.6-.65-.19.46Zm7.54-1.62.19.47 3.96-1.62-.2-.46-.18-.46-3.96 1.61.19.46Zm7.92-3.23.18.47 1.98-.81.2-2.22-.5-.05-.5-.04-.14 1.61-1.41.58.19.46Zm2.26-7.05.5.05.4-4.45-.5-.04-.5-.05-.4 4.45.5.04Zm.8-8.88.49.04.4-4.44-.5-.05-.5-.04-.4 4.44.5.05Zm.78-8.89.5.05.4-4.45-.5-.04-.5-.05-.4 4.45.5.04Z" clip-rule="evenodd"/>
    </symbol>
    <symbol id="advantages-energy" width="42" height="56" fill="none" viewBox="0 0 42 56">
      <path fill="#F0EBFF" fill-rule="evenodd" d="M19.97 35.2 38.13 4 4 30.68l15.97 4.52Zm6.06-10.4L7.87 56 42 29.32 26.03 24.8Z" clip-rule="evenodd"/>
      <path fill="#7859CF" fill-rule="evenodd" d="M34.13 0 0 26.68l15.97 4.52L3.87 52 38 25.32 22.03 20.8 34.13 0Zm1.7 25.75-15.32-4.34L30.66 4 2.16 26.25l15.33 4.34L7.34 48l28.5-22.26Z" clip-rule="evenodd"/>
    </symbol>
    <symbol id="advantages-eco" width="46" height="56" fill="none" viewBox="0 0 46 56">
      <path fill="#F0EBFF" fill-rule="evenodd" d="M38.7 22.12C39.49 15.56 40.2 9.35 46 4 19.5 4 11.85 12.13 8 18c-8.54 13.04-.91 25.67.71 28.09A808.17 808.17 0 0 0 4 55.56l.88.44c.64-1.27 1.3-2.6 1.98-4l2.65-5.32c2.6.87 14.45 4.19 21.99-4.68 5.66-6.66 6.45-13.44 7.2-19.88Z" clip-rule="evenodd"/>
      <path fill="#7859CF" fill-rule="evenodd" d="M5.23 41.05C9.2 33.26 13.7 25.1 18.27 20l.73.66c-4.57 5.08-9.07 13.3-13.03 21.12A26.2 26.2 0 0 0 13.09 43c4.38.12 9.66-.96 13.65-5.65 5.46-6.42 6.22-12.94 6.98-19.4l.02-.13c.68-5.81 1.38-11.64 5.87-16.8-11.79.23-19.48 2.16-24.67 4.68a23.8 23.8 0 0 0-10.1 8.85A22.6 22.6 0 0 0 1.9 33.43a28.93 28.93 0 0 0 3.33 7.63Zm-.52 1.04C3.1 39.67-4.54 27.04 4 14 7.78 8.24 15.23.3 40.55 0H42a22 22 0 0 0-1.02 1c-4.87 5.12-5.55 10.96-6.27 17.12-.76 6.44-1.55 13.22-7.21 19.88-7.54 8.87-19.4 5.55-21.99 4.68L2.86 48c-.68 1.4-1.34 2.73-1.98 4L0 51.56l1.97-3.96 2.74-5.51Z" clip-rule="evenodd"/>
    </symbol>
    <symbol id="footer-academy" width="12" height="16" fill="none" viewBox="0 0 12 16">
      <path fill="#BDBDBD" d="M11.215 5.754 5.972 2.5v-.001H5.97L.785 5.75V1.407L6 .83l5.215.576v4.347Zm-.004.576L9.126 7.623 5.985 5.656l-.006.573 2.685 1.68-.463.288-2.216-1.388-.006.572 1.75 1.095-.413.291-.01.007-1.321-.82-.006.572.867.538-.883.558L.796 6.39l5.175-3.275 5.24 3.216Zm.004 5.441L6 15.038.785 11.771V7.025l5.193 3.255.008.59-3.562-2.233-.005.573 3.576 2.263.01.605-3.576-2.24-.005.573L6 12.675l3.606-2.272V7.957l1.61-1.011v4.825ZM6 0 0 .662v11.58L6 16l6-3.759V.662L6 0Z"/>
    </symbol>
    <symbol id="footer-social-ok" width="20" height="20" fill="none" viewBox="0 0 20 20">
      <path fill="#BDBDBD" fill-rule="evenodd" d="M1.4 1.4C0 2.812 0 5.074 0 9.6V10.5136C-.0001 14.97-.0001 17.2117 1.4 18.6 2.812 20 5.074 20 9.6 20h.9131c4.4567.0001 6.6986.0001 8.0869-1.4 1.4-1.412 1.4-3.674 1.4-8.2v-.9131c.0001-4.4568.0001-6.6986-1.4-8.0869C17.188 0 14.926 0 10.4 0H9.4864C5.03-.0001 2.7882-.0001 1.4 1.4Zm8.6194 8.7972c1.6682 0 3.0283-1.36 3.0283-3.0283 0-1.6683-1.3601-3.0283-3.0283-3.0283-1.6864 0-3.0464 1.36-3.0464 3.0283 0 1.6683 1.36 3.0283 3.0464 3.0283Zm0-4.2795c.689 0 1.2512.5621 1.2512 1.2512 0 .689-.5622 1.2512-1.2512 1.2512-.6891 0-1.2512-.5621-1.2512-1.2512-.0182-.689.544-1.2512 1.2512-1.2512Zm1.2149 6.7638c.6166-.1451 1.215-.3808 1.759-.7254.417-.2538.5439-.816.272-1.233-.2539-.4171-.816-.544-1.2331-.272-1.2331.7797-2.847.7797-4.08 0-.4171-.2539-.9611-.1451-1.2331.272-.2357.417-.1088.961.3083 1.2149.544.3445 1.1424.5803 1.7589.7254l-1.6864 1.6864c-.3445.3445-.3445.9067 0 1.2512.1813.1813.399.2538.6347.2538.2357 0 .4533-.0907.6346-.2538l1.6683-1.6683 1.6683 1.6683c.3445.3445.9066.3445 1.2512 0 .3445-.3445.3445-.9067 0-1.2512l-1.7227-1.6683Z" clip-rule="evenodd"/>
    </symbol>
    <symbol id="footer-social-pinterest" width="22" height="22" fill="none" viewBox="0 0 22 22">
      <path fill="#BDBDBD" d="M11 0C4.925 0 0 4.925 0 11c0 4.66 2.9 8.644 6.991 10.247-.096-.87-.183-2.21.038-3.16.2-.858 1.29-5.467 1.29-5.467s-.329-.659-.329-1.633c0-1.53.887-2.671 1.99-2.671.94 0 1.392.704 1.392 1.549 0 .944-.6 2.355-.91 3.662-.26 1.095.549 1.988 1.628 1.988 1.955 0 3.458-2.061 3.458-5.037 0-2.634-1.892-4.475-4.595-4.475-3.13 0-4.966 2.347-4.966 4.774 0 .945.364 1.959.818 2.51.09.109.103.204.076.315-.083.348-.269 1.095-.305 1.248-.048.201-.16.244-.368.147-1.374-.64-2.233-2.648-2.233-4.261 0-3.47 2.521-6.657 7.268-6.657 3.816 0 6.782 2.72 6.782 6.353 0 3.791-2.39 6.842-5.708 6.842-1.115 0-2.163-.58-2.522-1.263l-.685 2.615c-.248.955-.919 2.153-1.367 2.883C8.773 21.83 9.866 22 11 22c6.075 0 11-4.925 11-11S17.075 0 11 0Z"/>
    </symbol>
    <symbol id="footer-social-vk" width="20" height="20" fill="none" viewBox="0 0 20 20">
      <path fill="#BDBDBD" fill-rule="evenodd" d="M1.4 1.4C0 2.82 0 5.08 0 9.6v.8c0 4.53 0 6.79 1.4 8.2C2.82 20 5.08 20 9.6 20h.8c4.53 0 6.79 0 8.2-1.4 1.4-1.41 1.4-3.67 1.4-8.2v-.8c0-4.53 0-6.79-1.4-8.2C17.18 0 14.92 0 10.4 0h-.8C5.07 0 2.81 0 1.4 1.4Zm1.98 4.68c.1 5.2 2.7 8.33 7.26 8.33h.26v-2.98a4.11 4.11 0 0 1 3.45 2.98h2.37a6.58 6.58 0 0 0-3.43-4.18 6.35 6.35 0 0 0 2.93-4.15h-2.15c-.47 1.65-1.85 3.15-3.17 3.3v-3.3H8.75v5.77c-1.33-.33-3.02-1.95-3.1-5.77H3.39Z" clip-rule="evenodd"/>
    </symbol>
</svg>
