<svg width="26" height="19" viewBox="0 0 36 26" xmlns="http://www.w3.org/2000/svg"><path fill="#FFF" d="M35.25 4.76a4.179 4.179 0 0 0-1.149-1.904 4.575 4.575 0 0 0-2.007-1.113C29.277 1 17.991 1 17.991 1c-4.705-.053-9.409.182-14.085.705a4.74 4.74 0 0 0-2.007 1.14A4.345 4.345 0 0 0 .732 4.76 43.635 43.635 0 0 0 0 13c-.018 2.762.226 5.52.732 8.241a4.24 4.24 0 0 0 1.163 1.904c.556.53 1.249.912 2.011 1.114C6.761 25 17.991 25 17.991 25c4.711.054 9.42-.182 14.103-.705a4.575 4.575 0 0 0 2.007-1.113 4.17 4.17 0 0 0 1.148-1.905c.517-2.716.769-5.477.751-8.242a39.868 39.868 0 0 0-.75-8.276v.002ZM14.403 18.137V7.866l9.39 5.136-9.39 5.134Z"/></svg>
