<svg viewBox="0 0 170 36" fill="none" xmlns="http://www.w3.org/2000/svg"><path d="M142.94 17.24h4.2v6.96c-.96.69-2.07 1.22-3.32 1.58-1.24.37-2.5.56-3.74.56a10.1 10.1 0 0 1-4.75-1.1 8.41 8.41 0 0 1-4.51-7.64c0-1.68.4-3.18 1.2-4.51a8.2 8.2 0 0 1 3.33-3.1 10.17 10.17 0 0 1 4.83-1.13c1.56 0 2.97.27 4.22.8a8.14 8.14 0 0 1 3.12 2.28l-3.02 2.73a5.33 5.33 0 0 0-4.08-1.87 4.7 4.7 0 0 0-3.48 1.32 4.66 4.66 0 0 0-1.32 3.48c0 .93.2 1.76.6 2.5.4.72.96 1.28 1.68 1.7a5 5 0 0 0 2.47.6c.91 0 1.77-.18 2.57-.55v-4.61Zm16.16 9.1c-1.78 0-3.38-.38-4.8-1.13a8.58 8.58 0 0 1-3.34-3.12 8.53 8.53 0 0 1-1.2-4.49c0-1.66.4-3.16 1.2-4.49a8.58 8.58 0 0 1 3.34-3.12 10.12 10.12 0 0 1 4.8-1.13c1.78 0 3.37.38 4.78 1.13a8.37 8.37 0 0 1 4.56 7.61 8.4 8.4 0 0 1-4.56 7.6 9.9 9.9 0 0 1-4.78 1.14Zm0-3.94a4.34 4.34 0 0 0 3.94-2.28c.4-.74.6-1.58.6-2.52s-.2-1.78-.6-2.5a4.3 4.3 0 0 0-3.94-2.3 4.3 4.3 0 0 0-3.94 2.3c-.4.72-.6 1.56-.6 2.5s.2 1.78.6 2.52a4.34 4.34 0 0 0 3.94 2.28Z" fill="#333"/><path fill-rule="evenodd" clip-rule="evenodd" d="M124 18c0 2.87-.6 5.59-1.66 8h-13.34c2.46-3.77 5-8.34 5-13a13 13 0 0 0-9.58-12.55c1.15-.3 2.35-.45 3.58-.45 8.84 0 16 8.06 16 18Zm-14-5a9 9 0 0 0-9-9c-6.65 0-9 8.5-9 14 0 9.94 7.16 18 16 18 4.74 0 9-2.32 11.93-6h-18.93l1.1-1.39c3.52-4.4 7.9-9.91 7.9-15.61Z" fill="#7859CF"/><path d="M2.65 9.2h7.94c1.84 0 3.48.34 4.9 1.03a7.77 7.77 0 0 1 3.31 2.93 8.25 8.25 0 0 1 1.18 4.44 7.77 7.77 0 0 1-4.49 7.37 11.12 11.12 0 0 1-4.9 1.03h-7.94v-16.8Zm7.75 13c1.44 0 2.6-.4 3.46-1.22a4.39 4.39 0 0 0 1.32-3.38c0-1.44-.44-2.57-1.32-3.38a4.83 4.83 0 0 0-3.46-1.23h-3v9.22h3Zm19.9-.66h-2.59v4.46h-4.75v-16.8h7.68c1.52 0 2.84.26 3.96.77a5.77 5.77 0 0 1 2.6 2.16c.6.93.9 2.02.9 3.29a5.9 5.9 0 0 1-.86 3.19c-.56.9-1.37 1.6-2.43 2.11l3.63 5.28h-5.09l-3.05-4.46Zm3-6.12c0-.79-.25-1.4-.74-1.83-.5-.43-1.23-.65-2.2-.65h-2.65v4.92h2.64c.98 0 1.71-.2 2.2-.62.5-.43.75-1.04.75-1.82Zm7.9-6.22h4.76v16.8h-4.76v-16.8Zm24.6 0v16.8h-3.91l-7.42-8.95v8.95h-4.65v-16.8h3.9l7.43 8.95v-8.95h4.65Zm10.31 10.7-1.77 1.9v4.2h-4.7v-16.8h4.7v6.98l6.5-6.98h5.23l-6.86 7.44 7.22 9.36h-5.52l-4.8-6.1Z" fill="#333"/></svg>