<svg xmlns="http://www.w3.org/2000/svg" fill="none" viewBox="0 0 52 56"><path fill="#F0EBFF" fill-rule="evenodd" d="M41.7 22.12c.78-6.56 1.5-12.77 7.3-18.12-26.5 0-34.15 8.13-38 14-8.54 13.04-.92 25.67.71 28.09a808.64 808.64 0 0 0-2.74 5.5 848.33 848.33 0 0 1-1.97 3.97l.88.44a862.98 862.98 0 0 0 1.99-4 825.82 825.82 0 0 1 2.64-5.32c2.6.87 14.46 4.18 21.99-4.68 5.66-6.66 6.45-13.44 7.2-19.88Z" clip-rule="evenodd"/><path fill="#7859CF" fill-rule="evenodd" d="M8.23 41.05c3.96-7.8 8.46-15.95 13.04-21.05l.73.66c-4.57 5.08-9.07 13.3-13.03 21.12a26.2 26.2 0 0 0 7.12 1.22c4.38.12 9.66-.96 13.65-5.65 5.46-6.42 6.22-12.94 6.98-19.4l.02-.13c.68-5.81 1.38-11.64 5.87-16.8-11.79.23-19.48 2.17-24.67 4.68a23.8 23.8 0 0 0-10.1 8.85 22.6 22.6 0 0 0-2.94 18.88 28.93 28.93 0 0 0 2.49 6.18c.32.59.6 1.07.84 1.45Zm-.52 1.04c-1.63-2.42-9.25-15.05-.71-28.09 3.78-5.76 11.23-13.7 36.55-14h1.45c-.36.33-.7.67-1.02 1-4.87 5.12-5.55 10.96-6.27 17.12-.76 6.44-1.55 13.22-7.21 19.88-7.54 8.87-19.4 5.55-21.99 4.68l-2.65 5.32a770.71 770.71 0 0 1-1.98 4l-.88-.44a898.65 898.65 0 0 0 1.97-3.96 808.17 808.17 0 0 1 2.74-5.51Z" clip-rule="evenodd"/></svg>