<svg viewBox="0 0 13 16" fill="none" xmlns="http://www.w3.org/2000/svg"><path fill-rule="evenodd" clip-rule="evenodd" d="M1.48 1.49a2.7 2.7 0 0 0-1.43 2.83l.35 1.77c.93 3.13 2.5 5.77 4.83 8.11l1.4 1.2c.86.72 2.17.8 3.24.2l2.23-1.25c.88-.49 1.17-1.53.63-2.26l-1.93-2.6c-.52-.7-1.6-.82-2.37-.26l-1.38.99a5.23 5.23 0 0 1-2.17-3.67l1.56-.66c.9-.37 1.33-1.33.96-2.11l-1.36-2.93c-.38-.82-1.46-1.1-2.33-.6l-2.23 1.24Zm-.2 2.53c-.12-.6.2-1.22.78-1.55l2.23-1.24c.22-.13.5-.06.59.15l1.36 2.93c.1.2-.02.43-.24.53l-2.43 1.02.02.42a6.28 6.28 0 0 0 3.07 5.16l.36.22 2.13-1.53c.2-.14.46-.11.59.06l1.93 2.61c.14.19.07.45-.15.57l-2.23 1.25c-.59.33-1.3.28-1.77-.12l-1.4-1.19a20.91 20.91 0 0 1-4.48-7.52l-.36-1.77Z" fill="#7859CF"/></svg>