<svg xmlns="http://www.w3.org/2000/svg" fill="none" viewBox="0 0 52 56"><path fill="#F0EBFF" fill-rule="evenodd" d="M24 4h8v3h-3v3.02a22.87 22.87 0 0 1 10.5 3.06c1.85-1.93 6.25.17 4.76 3.66a22.93 22.93 0 0 1 6.74 16.26 23 23 0 1 1-39.26-16.26c-2.03-3.03 2.58-6.16 4.76-3.66a22.87 22.87 0 0 1 10.5-3.06v-3.02h-3v-3Z" clip-rule="evenodd"/><path fill="#7859CF" fill-rule="evenodd" d="M27 1h-6v1h6v-1Zm-2 2h3v-3h-8v3h3v3.02a22.87 22.87 0 0 0-9.6 2.57l-.15-.16c-1.53-1.77-3.86-1.45-5.3-.4a4.15 4.15 0 0 0-1.6 2.25c-.26.96-.1 2.02.56 3.01l.12.19a22.92 22.92 0 0 0-6.03 15.52 23 23 0 1 0 40.01-15.48l.17-.39c.47-1.08.5-2.13.17-3.04-.32-.9-.95-1.6-1.68-2.06-1.41-.89-3.54-1.06-4.9.36l-.17.2a22.87 22.87 0 0 0-9.6-2.57v-3.02Zm-1 4c-3.86 0-7.49 1-10.64 2.74l-.36.2a22 22 0 0 0-3.93 2.9 21.94 21.94 0 0 0-7.07 16.16 22 22 0 0 0 44 0 21.93 21.93 0 0 0-6.82-15.93 22 22 0 0 0-4.18-3.12l-.36-.21a21.9 21.9 0 0 0-10.64-2.74Zm-11.5 2.08a23.08 23.08 0 0 0-4.76 3.66 2.98 2.98 0 0 1-.44-.98c-.55-2.31 2.31-4.31 4.35-3.34.3.15.6.37.85.66Zm23 0a23.08 23.08 0 0 1 4.76 3.66c.17-.4.26-.77.3-1.12.2-2.33-2.32-3.74-4.1-3.14a2.33 2.33 0 0 0-.96.6Zm-11.5 21.92a2 2 0 0 0 .86-3.8l-.91-.2a2 2 0 0 0 .05 4Zm-.64-4.93-1.34-4.94-.04-.15.05-.14 1.5-4.5.47-1.42.47 1.42 1.5 4.5.05.14-.04.15-1.34 4.94a3 3 0 0 1 .37.1l7.55-13.42.87.5-7.54 13.42a3 3 0 1 1-2.53-.6Zm-.34-5.06.98 3.59.98-3.58-.98-2.94-.98 2.93Z" clip-rule="evenodd"/></svg>