<svg viewBox="0 0 20 20" fill="none" xmlns="http://www.w3.org/2000/svg"><path fill-rule="evenodd" clip-rule="evenodd" d="M1.4 1.4c-1.4 1.41-1.4 3.67-1.4 8.2v.8c0 4.53 0 6.79 1.4 8.2 1.41 1.4 3.67 1.4 8.2 1.4h.8c4.53 0 6.79 0 8.2-1.4 1.4-1.41 1.4-3.67 1.4-8.2v-.8c0-4.53 0-6.79-1.4-8.2-1.41-1.4-3.67-1.4-8.2-1.4h-.8c-4.53 0-6.79 0-8.2 1.4Zm1.98 4.68c.1 5.2 2.7 8.33 7.26 8.33h.26v-2.98a4.11 4.11 0 0 1 3.45 2.98h2.37a6.58 6.58 0 0 0-3.43-4.18 6.35 6.35 0 0 0 2.93-4.15h-2.15c-.47 1.65-1.85 3.15-3.17 3.3v-3.3h-2.15v5.77c-1.33-.33-3.02-1.95-3.1-5.77h-2.27Z" fill="#BDBDBD"/></svg>