<svg viewBox="0 0 82 36" fill="none" xmlns="http://www.w3.org/2000/svg"><path d="M74.08 26.34a10.6 10.6 0 0 1-3.7-.63 8.82 8.82 0 0 1-2.95-1.82 8.56 8.56 0 0 1-2.61-6.29 8.62 8.62 0 0 1 2.64-6.29 8.52 8.52 0 0 1 2.95-1.8c1.15-.43 2.4-.65 3.77-.65 1.58 0 3 .27 4.24.8a7.94 7.94 0 0 1 3.1 2.28l-3.02 2.73a5.83 5.83 0 0 0-1.88-1.39 5.52 5.52 0 0 0-4.18-.14 4.5 4.5 0 0 0-2.5 2.5 5.4 5.4 0 0 0-.32 1.96 4.77 4.77 0 0 0 1.32 3.48 4.56 4.56 0 0 0 3.43 1.32c.7 0 1.39-.11 2.06-.34a7 7 0 0 0 2.04-1.2l2.67 3.34a10.9 10.9 0 0 1-3.34 1.58c-1.26.37-2.5.56-3.72.56Zm2.86-2.76v-6.34h4.2v6.96l-4.2-.62Z" fill="#333"/><path fill-rule="evenodd" clip-rule="evenodd" d="M58 18c0 2.87-.6 5.59-1.66 8h-13.34c2.46-3.77 5-8.34 5-13a13 13 0 0 0-9.58-12.55c1.15-.3 2.35-.45 3.58-.45 8.84 0 16 8.06 16 18Zm-14-5a9 9 0 0 0-9-9c-6.65 0-9 8.5-9 14 0 9.94 7.16 18 16 18 4.74 0 9-2.32 11.93-6h-18.93l1.1-1.39c3.52-4.4 7.9-9.91 7.9-15.61Z" fill="#7859CF"/><path d="M1.85 26v-16.8h7.95c1.85 0 3.48.34 4.9 1.03 1.4.69 2.5 1.66 3.28 2.9a8.1 8.1 0 0 1 1.2 4.47c0 1.71-.4 3.2-1.2 4.46a7.86 7.86 0 0 1-3.29 2.9c-1.4.7-3.04 1.04-4.9 1.04h-7.94Zm4.75-3.8h3c.96 0 1.8-.17 2.5-.52.72-.37 1.28-.9 1.68-1.58.4-.7.6-1.54.6-2.5 0-.98-.2-1.8-.6-2.5-.4-.68-.96-1.2-1.68-1.56a5.32 5.32 0 0 0-2.5-.55h-3v9.22Z" fill="#333"/></svg>