<svg width="32" height="36" viewBox="0 0 32 36" fill="none" xmlns="http://www.w3.org/2000/svg">
<path fill-rule="evenodd" clip-rule="evenodd" d="M32 18C32 20.8737 31.4014 23.5901 30.3369 26H17C19.4627 22.2281 22 17.6606 22 13C22 7.00236 17.9385 1.95335 12.4158 0.453392C13.5681 0.156712 14.7678 0 16 0C24.8366 0 32 8.05888 32 18ZM18 13C18 8.02944 13.9706 4 9 4C2.34935 4 0 12.5071 0 18C0 27.9411 7.16344 36 16 36C20.7387 36 24.9962 33.6825 27.9259 30H9C9.35183 29.5514 9.72025 29.0891 10.0987 28.6142C13.6157 24.2012 18 18.6997 18 13Z" fill="#7859CF"/>
</svg>
