<svg xmlns="http://www.w3.org/2000/svg"><style>:root svg:not(:target){display:none}</style><svg viewBox="0 0 12 16" fill="none" id="academy"><path d="m11.22 5.75-5.25-3.25-5.19 3.25v-4.34l5.22-.58 5.22.58v4.34Zm0 .58-2.1 1.3-3.14-1.97v.57l2.68 1.68-.46.29-2.22-1.4v.58l1.75 1.1-.41.29h-.01l-1.33-.82v.58l.87.53-.89.56-5.16-3.23 5.17-3.28 5.24 3.22Zm0 5.44-5.22 3.27-5.22-3.27v-4.74l5.2 3.25v.59l-3.56-2.23v.57l3.58 2.26v.6l-3.57-2.23v.57l3.57 2.26 3.6-2.27v-2.44l1.62-1.01v4.82Zm-5.22-11.77-6 .66v11.58l6 3.76 6-3.76v-11.58l-6-.66Z" fill="#BDBDBD"></path></svg><svg viewBox="0 0 13 16" fill="none" id="address"><path fill-rule="evenodd" clip-rule="evenodd" d="M11.8 6.5c0 2.33-1.37 4.42-2.91 6.01a17.54 17.54 0 0 1-2.39 2.05 16.93 16.93 0 0 1-2.39-2.05c-1.54-1.6-2.91-3.68-2.91-6.01a5.3 5.3 0 1 1 10.6 0Zm1.2 0c0 5.59-6.5 9.5-6.5 9.5s-6.5-3.91-6.5-9.5a6.5 6.5 0 0 1 13 0Zm-4.2 0a2.3 2.3 0 1 1-4.6 0 2.3 2.3 0 0 1 4.6 0Zm1.2 0a3.5 3.5 0 1 1-7 0 3.5 3.5 0 0 1 7 0Z" fill="#7859CF"></path></svg><svg viewBox="0 0 11 20" fill="none" id="arrow-next"><g clip-path="url(#arrow-next_0)"><path fill-rule="evenodd" clip-rule="evenodd" d="m1.28 20-1.28-1.32 8.43-8.68-8.43-8.68 1.28-1.32 9.72 10-9.72 10Z" fill="#7859CF"></path></g><defs><clipPath id="arrow-next_0"><path fill="#fff" transform="rotate(-180 5.5 10)" d="M0 0h11v20h-11z"></path></clipPath></defs></svg><svg viewBox="0 0 11 20" fill="none" id="arrow-prev"><path fill-rule="evenodd" clip-rule="evenodd" d="m9.72 0 1.28 1.32-8.43 8.68 8.43 8.68-1.28 1.32-9.72-10 9.72-10Z" fill="#7859CF"></path></svg><svg fill="none" viewBox="0 0 16 16" id="basket"><path fill="#333" fill-rule="evenodd" d="m5.66 3.88.23 2.79h4.22l.23-2.8a2.35 2.35 0 1 0-4.68 0Zm5.78 2.79.23-2.68a3.68 3.68 0 1 0-7.34 0l.23 2.68h-4.56l.19 1.33.82 5.71a2.67 2.67 0 0 0 2.64 2.29h8.7a2.67 2.67 0 0 0 2.64-2.29l.82-5.71.19-1.33h-4.56Zm-.1 1.33h-.06l-.22 2.67h3.02l.38-2.67h-3.13Zm-1.4 0h-3.88l.22 2.67h3.44l.22-2.67Zm-5.22 0h-3.18l.38 2.67h3.02l-.22-2.67Zm1.9 6.67-.23-2.67h3.22l-.22 2.67h-2.78Zm4.33-2.67-.23 2.67h1.63c.67 0 1.23-.5 1.32-1.15l.22-1.52h-2.94Zm-5.9 0 .22 2.67h-1.62a1.33 1.33 0 0 1-1.32-1.15l-.22-1.52h2.94Z" clip-rule="evenodd"></path></svg><svg fill="none" viewBox="0 0 16 16" id="burger"><path fill="#333" fill-rule="evenodd" d="M0 2h16v1.5h-16v-1.5Zm0 5.25h16v1.5h-16v-1.5Zm16 5.25h-16v1.5h16v-1.5Z" clip-rule="evenodd"></path></svg><svg fill="none" viewBox="0 0 16 16" id="close"><path fill="#333" fill-rule="evenodd" d="m7.03 8-5.03-5.03.97-.97 5.03 5.03 5.03-5.03.97.97-5.03 5.03 5.03 5.03-.97.97-5.03-5.03-5.03 5.03-.97-.97 5.03-5.03Z" clip-rule="evenodd"></path></svg><svg fill="none" viewBox="0 0 52 56" id="eco"><path fill="#F0EBFF" fill-rule="evenodd" d="M41.7 22.12c.78-6.56 1.5-12.77 7.3-18.12-26.5 0-34.15 8.13-38 14-8.54 13.04-.92 25.67.71 28.09a808.64 808.64 0 0 0-2.74 5.5 848.33 848.33 0 0 1-1.97 3.97l.88.44a862.98 862.98 0 0 0 1.99-4 825.82 825.82 0 0 1 2.64-5.32c2.6.87 14.46 4.18 21.99-4.68 5.66-6.66 6.45-13.44 7.2-19.88Z" clip-rule="evenodd"></path><path fill="#7859CF" fill-rule="evenodd" d="M8.23 41.05c3.96-7.8 8.46-15.95 13.04-21.05l.73.66c-4.57 5.08-9.07 13.3-13.03 21.12a26.2 26.2 0 0 0 7.12 1.22c4.38.12 9.66-.96 13.65-5.65 5.46-6.42 6.22-12.94 6.98-19.4l.02-.13c.68-5.81 1.38-11.64 5.87-16.8-11.79.23-19.48 2.17-24.67 4.68a23.8 23.8 0 0 0-10.1 8.85 22.6 22.6 0 0 0-2.94 18.88 28.93 28.93 0 0 0 2.49 6.18c.32.59.6 1.07.84 1.45Zm-.52 1.04c-1.63-2.42-9.25-15.05-.71-28.09 3.78-5.76 11.23-13.7 36.55-14h1.45c-.36.33-.7.67-1.02 1-4.87 5.12-5.55 10.96-6.27 17.12-.76 6.44-1.55 13.22-7.21 19.88-7.54 8.87-19.4 5.55-21.99 4.68l-2.65 5.32a770.71 770.71 0 0 1-1.98 4l-.88-.44a898.65 898.65 0 0 0 1.97-3.96 808.17 808.17 0 0 1 2.74-5.51Z" clip-rule="evenodd"></path></svg><svg fill="none" viewBox="0 0 52 56" id="energy"><path fill="#F0EBFF" fill-rule="evenodd" d="m24.97 35.2 18.16-31.2-34.13 26.68 15.97 4.52Zm6.06-10.4-18.16 31.2 34.13-26.68-15.97-4.52Z" clip-rule="evenodd"></path><path fill="#7859CF" fill-rule="evenodd" d="m39.13 0-34.13 26.68 15.97 4.52-12.1 20.8 34.13-26.68-15.97-4.52 12.1-20.8Zm1.7 25.75-15.32-4.34 10.15-17.42-28.5 22.26 15.33 4.34-10.15 17.42 28.5-22.26Z" clip-rule="evenodd"></path></svg><svg fill="none" viewBox="0 0 52 56" id="fit"><path fill="#F0EBFF" d="M4 4h48l-4 44-20 8-20-8-4-44Z"></path><path fill="#7859CF" fill-rule="evenodd" d="M1 0h-1l.09 1 3.91 43 20 8 20-8 3.91-43 .09-1h-47Zm.1 1 .36 4h45.08l.36-4h-45.8Zm40.8 5h-35.8l.1 1.13-.5.05-.5.04-.11-1.22h-3.54l3.39 37.3 19.06 7.62 19.06-7.62 3.39-37.3h-3.54l-.1 1.22-.5-.04-.5-.05.1-1.13Zm-35.8 5.62-.5.04.39 4.45.5-.05.5-.04-.4-4.45-.5.05Zm.78 8.88-.5.05.4 4.44.5-.04.5-.05-.4-4.44-.5.04Zm.8 8.89-.5.04.4 4.45.5-.05.49-.04-.4-4.45-.5.05Zm.79 8.88-.5.05.2 2.22 1.98.8.18-.46.2-.46-1.42-.58-.15-1.61-.5.04Zm5.82 4.23-.19.46 3.96 1.62.2-.47.18-.46-3.96-1.61-.19.46Zm7.92 3.23-.19.46 1.98.81 1.98-.8-.19-.47-.19-.46-1.6.65-1.6-.65-.2.46Zm7.54-1.62.19.47 3.96-1.62-.2-.46-.18-.46-3.96 1.61.19.46Zm7.92-3.23.19.47 1.97-.81.2-2.22-.5-.05-.5-.04-.14 1.61-1.41.58.19.46Zm2.26-7.05.5.04.4-4.44-.5-.04-.5-.05-.4 4.45.5.04Zm.8-8.88.49.04.4-4.44-.5-.05-.5-.04-.4 4.44.5.05Zm.78-8.89.5.05.4-4.45-.5-.04-.5-.04-.4 4.44.5.04Z" clip-rule="evenodd"></path></svg><svg viewBox="0 0 20 20" fill="none" id="ok"><path fill-rule="evenodd" clip-rule="evenodd" d="M1.4 1.4c-1.4 1.41-1.4 3.67-1.4 8.2v.91c0 4.46 0 6.7 1.4 8.09 1.41 1.4 3.67 1.4 8.2 1.4h.91c4.46 0 6.7 0 8.09-1.4 1.4-1.41 1.4-3.67 1.4-8.2v-.91c0-4.46 0-6.7-1.4-8.09-1.41-1.4-3.67-1.4-8.2-1.4h-.91c-4.46 0-6.7 0-8.09 1.4Zm8.62 8.8a3.03 3.03 0 1 0-.01-6.07 3.03 3.03 0 0 0 0 6.07Zm0-4.28a1.25 1.25 0 0 1 0 2.5c-.69 0-1.25-.56-1.25-1.25a1.23 1.23 0 0 1 1.25-1.25Zm1.21 6.76a5.73 5.73 0 0 0 1.76-.72.88.88 0 0 0 .28-1.24.88.88 0 0 0-1.24-.27 3.85 3.85 0 0 1-4.08 0 .9.9 0 0 0-1.23.27.9.9 0 0 0 .3 1.22 5.8 5.8 0 0 0 1.77.72l-1.69 1.69a.89.89 0 0 0 0 1.25c.18.18.4.25.63.25.24 0 .46-.09.64-.25l1.67-1.67 1.67 1.67a.89.89 0 0 0 1.25-1.25l-1.73-1.67Z" fill="#BDBDBD"></path></svg><svg viewBox="0 0 13 16" fill="none" id="phone"><path fill-rule="evenodd" clip-rule="evenodd" d="M1.48 1.49a2.7 2.7 0 0 0-1.43 2.83l.35 1.77c.93 3.13 2.5 5.77 4.83 8.11l1.4 1.2c.86.72 2.17.8 3.24.2l2.23-1.25c.88-.49 1.17-1.53.63-2.26l-1.93-2.6c-.52-.7-1.6-.82-2.37-.26l-1.38.99a5.23 5.23 0 0 1-2.17-3.67l1.56-.66c.9-.37 1.33-1.33.96-2.11l-1.36-2.93c-.38-.82-1.46-1.1-2.33-.6l-2.23 1.24Zm-.2 2.53c-.12-.6.2-1.22.78-1.55l2.23-1.24c.22-.13.5-.06.59.15l1.36 2.93c.1.2-.02.43-.24.53l-2.43 1.02.02.42a6.28 6.28 0 0 0 3.07 5.16l.36.22 2.13-1.53c.2-.14.46-.11.59.06l1.93 2.61c.14.19.07.45-.15.57l-2.23 1.25c-.59.33-1.3.28-1.77-.12l-1.4-1.19a20.91 20.91 0 0 1-4.48-7.52l-.36-1.77Z" fill="#7859CF"></path></svg><svg viewBox="0 0 22 22" fill="none" id="pinterest"><path d="M11 0a11 11 0 0 0-4 21.25c-.1-.87-.2-2.21.03-3.16l1.29-5.47s-.33-.66-.33-1.63c0-1.53.89-2.67 2-2.67.93 0 1.38.7 1.38 1.54 0 .95-.6 2.36-.9 3.67-.27 1.1.54 1.99 1.62 1.99 1.96 0 3.46-2.07 3.46-5.04 0-2.64-1.9-4.48-4.6-4.48a4.76 4.76 0 0 0-4.96 4.78c0 .94.36 1.96.82 2.5.09.12.1.21.07.32l-.3 1.25c-.05.2-.16.24-.37.15-1.38-.64-2.23-2.65-2.23-4.26 0-3.47 2.52-6.66 7.26-6.66 3.82 0 6.78 2.72 6.78 6.35 0 3.8-2.39 6.84-5.7 6.84-1.12 0-2.17-.58-2.52-1.26l-.69 2.62a12.3 12.3 0 0 1-1.37 2.88 11 11 0 1 0 3.26-21.51Z" fill="#BDBDBD"></path></svg><svg fill="none" viewBox="0 0 52 56" id="speed"><path fill="#F0EBFF" fill-rule="evenodd" d="M24 4h8v3h-3v3.02a22.87 22.87 0 0 1 10.5 3.06c1.85-1.93 6.25.17 4.76 3.66a22.93 22.93 0 0 1 6.74 16.26 23 23 0 1 1-39.26-16.26c-2.03-3.03 2.58-6.16 4.76-3.66a22.87 22.87 0 0 1 10.5-3.06v-3.02h-3v-3Z" clip-rule="evenodd"></path><path fill="#7859CF" fill-rule="evenodd" d="M27 1h-6v1h6v-1Zm-2 2h3v-3h-8v3h3v3.02a22.87 22.87 0 0 0-9.6 2.57l-.15-.16c-1.53-1.77-3.86-1.45-5.3-.4a4.15 4.15 0 0 0-1.6 2.25c-.26.96-.1 2.02.56 3.01l.12.19a22.92 22.92 0 0 0-6.03 15.52 23 23 0 1 0 40.01-15.48l.17-.39c.47-1.08.5-2.13.17-3.04-.32-.9-.95-1.6-1.68-2.06-1.41-.89-3.54-1.06-4.9.36l-.17.2a22.87 22.87 0 0 0-9.6-2.57v-3.02Zm-1 4c-3.86 0-7.49 1-10.64 2.74l-.36.2a22 22 0 0 0-3.93 2.9 21.94 21.94 0 0 0-7.07 16.16 22 22 0 0 0 44 0 21.93 21.93 0 0 0-6.82-15.93 22 22 0 0 0-4.18-3.12l-.36-.21a21.9 21.9 0 0 0-10.64-2.74Zm-11.5 2.08a23.08 23.08 0 0 0-4.76 3.66 2.98 2.98 0 0 1-.44-.98c-.55-2.31 2.31-4.31 4.35-3.34.3.15.6.37.85.66Zm23 0a23.08 23.08 0 0 1 4.76 3.66c.17-.4.26-.77.3-1.12.2-2.33-2.32-3.74-4.1-3.14a2.33 2.33 0 0 0-.96.6Zm-11.5 21.92a2 2 0 0 0 .86-3.8l-.91-.2a2 2 0 0 0 .05 4Zm-.64-4.93-1.34-4.94-.04-.15.05-.14 1.5-4.5.47-1.42.47 1.42 1.5 4.5.05.14-.04.15-1.34 4.94a3 3 0 0 1 .37.1l7.55-13.42.87.5-7.54 13.42a3 3 0 1 1-2.53-.6Zm-.34-5.06.98 3.59.98-3.58-.98-2.94-.98 2.93Z" clip-rule="evenodd"></path></svg><svg fill="none" viewBox="0 0 16 16" id="user"><path fill="#333" fill-rule="evenodd" d="M10.67 4a2.67 2.67 0 1 1-5.34 0 2.67 2.67 0 0 1 5.34 0Zm1.33 0a4 4 0 1 1-8 0 4 4 0 0 1 8 0Zm-8.8 8.31a7.55 7.55 0 0 1 4.8-1.64c1.84 0 3.56.6 4.8 1.64a4.83 4.83 0 0 1 1.87 3.69h1.33c0-1.77-.84-3.46-2.34-4.71a8.88 8.88 0 0 0-5.66-1.96c-2.12 0-4.16.7-5.66 1.96a6.16 6.16 0 0 0-2.34 4.71h1.33c0-1.33.63-2.66 1.87-3.69Z" clip-rule="evenodd"></path></svg><svg viewBox="0 0 20 20" fill="none" id="vk"><path fill-rule="evenodd" clip-rule="evenodd" d="M1.4 1.4c-1.4 1.41-1.4 3.67-1.4 8.2v.8c0 4.53 0 6.79 1.4 8.2 1.41 1.4 3.67 1.4 8.2 1.4h.8c4.53 0 6.79 0 8.2-1.4 1.4-1.41 1.4-3.67 1.4-8.2v-.8c0-4.53 0-6.79-1.4-8.2-1.41-1.4-3.67-1.4-8.2-1.4h-.8c-4.53 0-6.79 0-8.2 1.4Zm1.98 4.68c.1 5.2 2.7 8.33 7.26 8.33h.26v-2.98a4.11 4.11 0 0 1 3.45 2.98h2.37a6.58 6.58 0 0 0-3.43-4.18 6.35 6.35 0 0 0 2.93-4.15h-2.15c-.47 1.65-1.85 3.15-3.17 3.3v-3.3h-2.15v5.77c-1.33-.33-3.02-1.95-3.1-5.77h-2.27Z" fill="#BDBDBD"></path></svg></svg>